<?xml version="1.0" encoding="us-ascii" standalone="no"?><svg xmlns="http://www.w3.org/2000/svg" xmlns:xlink="http://www.w3.org/1999/xlink" contentStyleType="text/css" height="1387px" preserveAspectRatio="none" style="width:406px;height:1387px;background:#FFFFFF;" version="1.1" viewBox="0 0 406 1387" width="406px" zoomAndPan="magnify"><defs/><g><ellipse cx="212" cy="20" fill="#222222" rx="10" ry="10" style="stroke:#222222;stroke-width:1.0;"/><rect fill="#F1F1F1" height="33.9688" rx="12.5" ry="12.5" style="stroke:#181818;stroke-width:0.5;" width="92" x="166" y="50"/><text fill="#000000" font-family="sans-serif" font-size="12" lengthAdjust="spacing" textLength="72" x="176" y="71.1387">Registrarse</text><rect fill="#F1F1F1" height="33.9688" rx="12.5" ry="12.5" style="stroke:#181818;stroke-width:0.5;" width="103" x="160.5" y="103.9688"/><text fill="#000000" font-family="sans-serif" font-size="12" lengthAdjust="spacing" textLength="83" x="170.5" y="125.1074">Iniciar Sesi&#243;n</text><rect fill="none" height="986.0586" style="stroke:#000000;stroke-width:1.5;" width="384" x="11" y="147.9375"/><path d="M73,147.9375 L73,157.2344 L63,167.2344 L11,167.2344 " fill="none" style="stroke:#000000;stroke-width:1.5;"/><text fill="#000000" font-family="sans-serif" font-size="14" lengthAdjust="spacing" textLength="52" x="14" y="161.9326">Usuario</text><rect fill="#F1F1F1" height="33.9688" rx="12.5" ry="12.5" style="stroke:#181818;stroke-width:0.5;" width="104" x="160" y="232.6367"/><text fill="#000000" font-family="sans-serif" font-size="12" lengthAdjust="spacing" textLength="84" x="170" y="253.7754">Agregar Libro</text><rect fill="#F1F1F1" height="33.9688" rx="12.5" ry="12.5" style="stroke:#181818;stroke-width:0.5;" width="165" x="129.5" y="286.6055"/><text fill="#000000" font-family="sans-serif" font-size="12" lengthAdjust="spacing" textLength="145" x="139.5" y="307.7441">Editar detalles del libro</text><rect fill="#F1F1F1" height="33.9688" rx="12.5" ry="12.5" style="stroke:#181818;stroke-width:0.5;" width="199" x="112.5" y="340.5742"/><text fill="#000000" font-family="sans-serif" font-size="12" lengthAdjust="spacing" textLength="179" x="122.5" y="361.7129">Eliminar libro si es necesario</text><polygon fill="#F1F1F1" points="149,184.2344,275,184.2344,287,196.2344,275,208.2344,149,208.2344,137,196.2344,149,184.2344" style="stroke:#181818;stroke-width:0.5;"/><text fill="#000000" font-family="sans-serif" font-size="11" lengthAdjust="spacing" textLength="11" x="216" y="218.4448">S&#237;</text><text fill="#000000" font-family="sans-serif" font-size="11" lengthAdjust="spacing" textLength="126" x="149" y="200.0425">&#191;Desea agregar libro?</text><polygon fill="#F1F1F1" points="212,394.543,224,406.543,212,418.543,200,406.543,212,394.543" style="stroke:#181818;stroke-width:0.5;"/><rect fill="#F1F1F1" height="33.9688" rx="12.5" ry="12.5" style="stroke:#181818;stroke-width:0.5;" width="166" x="129" y="486.9453"/><text fill="#000000" font-family="sans-serif" font-size="12" lengthAdjust="spacing" textLength="146" x="139" y="508.084">Visualizar lista de libros</text><polygon fill="#F1F1F1" points="141.5,438.543,282.5,438.543,294.5,450.543,282.5,462.543,141.5,462.543,129.5,450.543,141.5,438.543" style="stroke:#181818;stroke-width:0.5;"/><text fill="#000000" font-family="sans-serif" font-size="11" lengthAdjust="spacing" textLength="11" x="216" y="472.7534">S&#237;</text><text fill="#000000" font-family="sans-serif" font-size="11" lengthAdjust="spacing" textLength="141" x="141.5" y="454.3511">&#191;Desea visualizar libros?</text><polygon fill="#F1F1F1" points="212,540.9141,224,552.9141,212,564.9141,200,552.9141,212,540.9141" style="stroke:#181818;stroke-width:0.5;"/><rect fill="#F1F1F1" height="33.9688" rx="12.5" ry="12.5" style="stroke:#181818;stroke-width:0.5;" width="148" x="138" y="633.3164"/><text fill="#000000" font-family="sans-serif" font-size="12" lengthAdjust="spacing" textLength="128" x="148" y="654.4551">Solicitar Intercambio</text><polygon fill="#F1F1F1" points="144.5,687.2852,279.5,687.2852,291.5,699.2852,279.5,711.2852,144.5,711.2852,132.5,699.2852,144.5,687.2852" style="stroke:#181818;stroke-width:0.5;"/><text fill="#000000" font-family="sans-serif" font-size="11" lengthAdjust="spacing" textLength="135" x="144.5" y="703.0933">&#191;Intercambio aceptado?</text><text fill="#000000" font-family="sans-serif" font-size="11" lengthAdjust="spacing" textLength="11" x="121.5" y="696.6909">S&#237;</text><text fill="#000000" font-family="sans-serif" font-size="11" lengthAdjust="spacing" textLength="15" x="291.5" y="696.6909">No</text><rect fill="#F1F1F1" height="33.9688" rx="12.5" ry="12.5" style="stroke:#181818;stroke-width:0.5;" width="197" x="23" y="721.2852"/><text fill="#000000" font-family="sans-serif" font-size="12" lengthAdjust="spacing" textLength="177" x="33" y="742.4238">Proceder con el intercambio</text><rect fill="#F1F1F1" height="33.9688" rx="12.5" ry="12.5" style="stroke:#181818;stroke-width:0.5;" width="125" x="240" y="721.2852"/><text fill="#000000" font-family="sans-serif" font-size="12" lengthAdjust="spacing" textLength="105" x="250" y="742.4238">Notificar rechazo</text><polygon fill="#F1F1F1" points="212,761.2539,224,773.2539,212,785.2539,200,773.2539,212,761.2539" style="stroke:#181818;stroke-width:0.5;"/><polygon fill="#F1F1F1" points="128,584.9141,296,584.9141,308,596.9141,296,608.9141,128,608.9141,116,596.9141,128,584.9141" style="stroke:#181818;stroke-width:0.5;"/><text fill="#000000" font-family="sans-serif" font-size="11" lengthAdjust="spacing" textLength="11" x="216" y="619.1245">S&#237;</text><text fill="#000000" font-family="sans-serif" font-size="11" lengthAdjust="spacing" textLength="168" x="128" y="600.7222">&#191;Desea solicitar intercambio?</text><polygon fill="#F1F1F1" points="212,805.2539,224,817.2539,212,829.2539,200,817.2539,212,805.2539" style="stroke:#181818;stroke-width:0.5;"/><rect fill="#F1F1F1" height="33.9688" rx="12.5" ry="12.5" style="stroke:#181818;stroke-width:0.5;" width="104" x="160" y="897.6563"/><text fill="#000000" font-family="sans-serif" font-size="12" lengthAdjust="spacing" textLength="84" x="170" y="918.7949">Dejar Rese&#241;a</text><polygon fill="#F1F1F1" points="149.5,849.2539,274.5,849.2539,286.5,861.2539,274.5,873.2539,149.5,873.2539,137.5,861.2539,149.5,849.2539" style="stroke:#181818;stroke-width:0.5;"/><text fill="#000000" font-family="sans-serif" font-size="11" lengthAdjust="spacing" textLength="11" x="216" y="883.4644">S&#237;</text><text fill="#000000" font-family="sans-serif" font-size="11" lengthAdjust="spacing" textLength="125" x="149.5" y="865.062">&#191;Desea dejar rese&#241;a?</text><polygon fill="#F1F1F1" points="212,951.625,224,963.625,212,975.625,200,963.625,212,951.625" style="stroke:#181818;stroke-width:0.5;"/><rect fill="#F1F1F1" height="33.9688" rx="12.5" ry="12.5" style="stroke:#181818;stroke-width:0.5;" width="92" x="166" y="1044.0273"/><text fill="#000000" font-family="sans-serif" font-size="12" lengthAdjust="spacing" textLength="72" x="176" y="1065.166">Editar Perfil</text><polygon fill="#F1F1F1" points="153,995.625,271,995.625,283,1007.625,271,1019.625,153,1019.625,141,1007.625,153,995.625" style="stroke:#181818;stroke-width:0.5;"/><text fill="#000000" font-family="sans-serif" font-size="11" lengthAdjust="spacing" textLength="11" x="216" y="1029.8354">S&#237;</text><text fill="#000000" font-family="sans-serif" font-size="11" lengthAdjust="spacing" textLength="118" x="153" y="1011.4331">&#191;Desea editar perfil?</text><polygon fill="#F1F1F1" points="212,1097.9961,224,1109.9961,212,1121.9961,200,1109.9961,212,1097.9961" style="stroke:#181818;stroke-width:0.5;"/><rect fill="none" height="136.2344" style="stroke:#000000;stroke-width:1.5;" width="170" x="127" y="1143.9961"/><path d="M232,1143.9961 L232,1153.293 L222,1163.293 L127,1163.293 " fill="none" style="stroke:#000000;stroke-width:1.5;"/><text fill="#000000" font-family="sans-serif" font-size="14" lengthAdjust="spacing" textLength="95" x="130" y="1157.9912">Administrador</text><rect fill="#F1F1F1" height="33.9688" rx="12.5" ry="12.5" style="stroke:#181818;stroke-width:0.5;" width="150" x="137" y="1180.293"/><text fill="#000000" font-family="sans-serif" font-size="12" lengthAdjust="spacing" textLength="130" x="147" y="1201.4316">Administrar Usuarios</text><rect fill="#F1F1F1" height="33.9688" rx="12.5" ry="12.5" style="stroke:#181818;stroke-width:0.5;" width="132" x="146" y="1234.2617"/><text fill="#000000" font-family="sans-serif" font-size="12" lengthAdjust="spacing" textLength="112" x="156" y="1255.4004">Administrar Libros</text><rect fill="#F1F1F1" height="33.9688" rx="12.5" ry="12.5" style="stroke:#181818;stroke-width:0.5;" width="115" x="154.5" y="1300.2305"/><text fill="#000000" font-family="sans-serif" font-size="12" lengthAdjust="spacing" textLength="95" x="164.5" y="1321.3691">Finalizar sesi&#243;n</text><ellipse cx="212" cy="1365.1992" fill="none" rx="11" ry="11" style="stroke:#222222;stroke-width:1.0;"/><ellipse cx="212" cy="1365.1992" fill="#222222" rx="6" ry="6" style="stroke:#111111;stroke-width:1.0;"/><line style="stroke:#181818;stroke-width:1.0;" x1="212" x2="212" y1="30" y2="50"/><polygon fill="#181818" points="208,40,212,50,216,40,212,44" style="stroke:#181818;stroke-width:1.0;"/><line style="stroke:#181818;stroke-width:1.0;" x1="212" x2="212" y1="83.9688" y2="103.9688"/><polygon fill="#181818" points="208,93.9688,212,103.9688,216,93.9688,212,97.9688" style="stroke:#181818;stroke-width:1.0;"/><line style="stroke:#181818;stroke-width:1.0;" x1="212" x2="212" y1="266.6055" y2="286.6055"/><polygon fill="#181818" points="208,276.6055,212,286.6055,216,276.6055,212,280.6055" style="stroke:#181818;stroke-width:1.0;"/><line style="stroke:#181818;stroke-width:1.0;" x1="212" x2="212" y1="320.5742" y2="340.5742"/><polygon fill="#181818" points="208,330.5742,212,340.5742,216,330.5742,212,334.5742" style="stroke:#181818;stroke-width:1.0;"/><line style="stroke:#181818;stroke-width:1.0;" x1="212" x2="212" y1="208.2344" y2="232.6367"/><polygon fill="#181818" points="208,222.6367,212,232.6367,216,222.6367,212,226.6367" style="stroke:#181818;stroke-width:1.0;"/><line style="stroke:#181818;stroke-width:1.0;" x1="287" x2="321.5" y1="196.2344" y2="196.2344"/><polygon fill="#181818" points="317.5,293.5898,321.5,303.5898,325.5,293.5898,321.5,297.5898" style="stroke:#181818;stroke-width:1.0;"/><line style="stroke:#181818;stroke-width:1.0;" x1="321.5" x2="321.5" y1="196.2344" y2="406.543"/><line style="stroke:#181818;stroke-width:1.0;" x1="321.5" x2="224" y1="406.543" y2="406.543"/><polygon fill="#181818" points="234,402.543,224,406.543,234,410.543,230,406.543" style="stroke:#181818;stroke-width:1.0;"/><line style="stroke:#181818;stroke-width:1.0;" x1="212" x2="212" y1="374.543" y2="394.543"/><polygon fill="#181818" points="208,384.543,212,394.543,216,384.543,212,388.543" style="stroke:#181818;stroke-width:1.0;"/><line style="stroke:#181818;stroke-width:1.0;" x1="212" x2="212" y1="462.543" y2="486.9453"/><polygon fill="#181818" points="208,476.9453,212,486.9453,216,476.9453,212,480.9453" style="stroke:#181818;stroke-width:1.0;"/><line style="stroke:#181818;stroke-width:1.0;" x1="294.5" x2="306.5" y1="450.543" y2="450.543"/><polygon fill="#181818" points="302.5,493.9297,306.5,503.9297,310.5,493.9297,306.5,497.9297" style="stroke:#181818;stroke-width:1.0;"/><line style="stroke:#181818;stroke-width:1.0;" x1="306.5" x2="306.5" y1="450.543" y2="552.9141"/><line style="stroke:#181818;stroke-width:1.0;" x1="306.5" x2="224" y1="552.9141" y2="552.9141"/><polygon fill="#181818" points="234,548.9141,224,552.9141,234,556.9141,230,552.9141" style="stroke:#181818;stroke-width:1.0;"/><line style="stroke:#181818;stroke-width:1.0;" x1="212" x2="212" y1="520.9141" y2="540.9141"/><polygon fill="#181818" points="208,530.9141,212,540.9141,216,530.9141,212,534.9141" style="stroke:#181818;stroke-width:1.0;"/><line style="stroke:#181818;stroke-width:1.0;" x1="212" x2="212" y1="418.543" y2="438.543"/><polygon fill="#181818" points="208,428.543,212,438.543,216,428.543,212,432.543" style="stroke:#181818;stroke-width:1.0;"/><line style="stroke:#181818;stroke-width:1.0;" x1="132.5" x2="121.5" y1="699.2852" y2="699.2852"/><line style="stroke:#181818;stroke-width:1.0;" x1="121.5" x2="121.5" y1="699.2852" y2="721.2852"/><polygon fill="#181818" points="117.5,711.2852,121.5,721.2852,125.5,711.2852,121.5,715.2852" style="stroke:#181818;stroke-width:1.0;"/><line style="stroke:#181818;stroke-width:1.0;" x1="291.5" x2="302.5" y1="699.2852" y2="699.2852"/><line style="stroke:#181818;stroke-width:1.0;" x1="302.5" x2="302.5" y1="699.2852" y2="721.2852"/><polygon fill="#181818" points="298.5,711.2852,302.5,721.2852,306.5,711.2852,302.5,715.2852" style="stroke:#181818;stroke-width:1.0;"/><line style="stroke:#181818;stroke-width:1.0;" x1="121.5" x2="121.5" y1="755.2539" y2="773.2539"/><line style="stroke:#181818;stroke-width:1.0;" x1="121.5" x2="200" y1="773.2539" y2="773.2539"/><polygon fill="#181818" points="190,769.2539,200,773.2539,190,777.2539,194,773.2539" style="stroke:#181818;stroke-width:1.0;"/><line style="stroke:#181818;stroke-width:1.0;" x1="302.5" x2="302.5" y1="755.2539" y2="773.2539"/><line style="stroke:#181818;stroke-width:1.0;" x1="302.5" x2="224" y1="773.2539" y2="773.2539"/><polygon fill="#181818" points="234,769.2539,224,773.2539,234,777.2539,230,773.2539" style="stroke:#181818;stroke-width:1.0;"/><line style="stroke:#181818;stroke-width:1.0;" x1="212" x2="212" y1="667.2852" y2="687.2852"/><polygon fill="#181818" points="208,677.2852,212,687.2852,216,677.2852,212,681.2852" style="stroke:#181818;stroke-width:1.0;"/><line style="stroke:#181818;stroke-width:1.0;" x1="212" x2="212" y1="608.9141" y2="633.3164"/><polygon fill="#181818" points="208,623.3164,212,633.3164,216,623.3164,212,627.3164" style="stroke:#181818;stroke-width:1.0;"/><line style="stroke:#181818;stroke-width:1.0;" x1="308" x2="379" y1="596.9141" y2="596.9141"/><polygon fill="#181818" points="375,691.7852,379,701.7852,383,691.7852,379,695.7852" style="stroke:#181818;stroke-width:1.0;"/><line style="stroke:#181818;stroke-width:1.0;" x1="379" x2="379" y1="596.9141" y2="817.2539"/><line style="stroke:#181818;stroke-width:1.0;" x1="379" x2="224" y1="817.2539" y2="817.2539"/><polygon fill="#181818" points="234,813.2539,224,817.2539,234,821.2539,230,817.2539" style="stroke:#181818;stroke-width:1.0;"/><line style="stroke:#181818;stroke-width:1.0;" x1="212" x2="212" y1="785.2539" y2="805.2539"/><polygon fill="#181818" points="208,795.2539,212,805.2539,216,795.2539,212,799.2539" style="stroke:#181818;stroke-width:1.0;"/><line style="stroke:#181818;stroke-width:1.0;" x1="212" x2="212" y1="564.9141" y2="584.9141"/><polygon fill="#181818" points="208,574.9141,212,584.9141,216,574.9141,212,578.9141" style="stroke:#181818;stroke-width:1.0;"/><line style="stroke:#181818;stroke-width:1.0;" x1="212" x2="212" y1="873.2539" y2="897.6563"/><polygon fill="#181818" points="208,887.6563,212,897.6563,216,887.6563,212,891.6563" style="stroke:#181818;stroke-width:1.0;"/><line style="stroke:#181818;stroke-width:1.0;" x1="286.5" x2="298.5" y1="861.2539" y2="861.2539"/><polygon fill="#181818" points="294.5,904.6406,298.5,914.6406,302.5,904.6406,298.5,908.6406" style="stroke:#181818;stroke-width:1.0;"/><line style="stroke:#181818;stroke-width:1.0;" x1="298.5" x2="298.5" y1="861.2539" y2="963.625"/><line style="stroke:#181818;stroke-width:1.0;" x1="298.5" x2="224" y1="963.625" y2="963.625"/><polygon fill="#181818" points="234,959.625,224,963.625,234,967.625,230,963.625" style="stroke:#181818;stroke-width:1.0;"/><line style="stroke:#181818;stroke-width:1.0;" x1="212" x2="212" y1="931.625" y2="951.625"/><polygon fill="#181818" points="208,941.625,212,951.625,216,941.625,212,945.625" style="stroke:#181818;stroke-width:1.0;"/><line style="stroke:#181818;stroke-width:1.0;" x1="212" x2="212" y1="829.2539" y2="849.2539"/><polygon fill="#181818" points="208,839.2539,212,849.2539,216,839.2539,212,843.2539" style="stroke:#181818;stroke-width:1.0;"/><line style="stroke:#181818;stroke-width:1.0;" x1="212" x2="212" y1="1019.625" y2="1044.0273"/><polygon fill="#181818" points="208,1034.0273,212,1044.0273,216,1034.0273,212,1038.0273" style="stroke:#181818;stroke-width:1.0;"/><line style="stroke:#181818;stroke-width:1.0;" x1="283" x2="295" y1="1007.625" y2="1007.625"/><polygon fill="#181818" points="291,1051.0117,295,1061.0117,299,1051.0117,295,1055.0117" style="stroke:#181818;stroke-width:1.0;"/><line style="stroke:#181818;stroke-width:1.0;" x1="295" x2="295" y1="1007.625" y2="1109.9961"/><line style="stroke:#181818;stroke-width:1.0;" x1="295" x2="224" y1="1109.9961" y2="1109.9961"/><polygon fill="#181818" points="234,1105.9961,224,1109.9961,234,1113.9961,230,1109.9961" style="stroke:#181818;stroke-width:1.0;"/><line style="stroke:#181818;stroke-width:1.0;" x1="212" x2="212" y1="1077.9961" y2="1097.9961"/><polygon fill="#181818" points="208,1087.9961,212,1097.9961,216,1087.9961,212,1091.9961" style="stroke:#181818;stroke-width:1.0;"/><line style="stroke:#181818;stroke-width:1.0;" x1="212" x2="212" y1="975.625" y2="995.625"/><polygon fill="#181818" points="208,985.625,212,995.625,216,985.625,212,989.625" style="stroke:#181818;stroke-width:1.0;"/><line style="stroke:#181818;stroke-width:1.0;" x1="212" x2="212" y1="137.9375" y2="184.2344"/><polygon fill="#181818" points="208,174.2344,212,184.2344,216,174.2344,212,178.2344" style="stroke:#181818;stroke-width:1.0;"/><line style="stroke:#181818;stroke-width:1.0;" x1="212" x2="212" y1="1214.2617" y2="1234.2617"/><polygon fill="#181818" points="208,1224.2617,212,1234.2617,216,1224.2617,212,1228.2617" style="stroke:#181818;stroke-width:1.0;"/><line style="stroke:#181818;stroke-width:1.0;" x1="212" x2="212" y1="1121.9961" y2="1180.293"/><polygon fill="#181818" points="208,1170.293,212,1180.293,216,1170.293,212,1174.293" style="stroke:#181818;stroke-width:1.0;"/><line style="stroke:#181818;stroke-width:1.0;" x1="212" x2="212" y1="1268.2305" y2="1300.2305"/><polygon fill="#181818" points="208,1290.2305,212,1300.2305,216,1290.2305,212,1294.2305" style="stroke:#181818;stroke-width:1.0;"/><line style="stroke:#181818;stroke-width:1.0;" x1="212" x2="212" y1="1334.1992" y2="1354.1992"/><polygon fill="#181818" points="208,1344.1992,212,1354.1992,216,1344.1992,212,1348.1992" style="stroke:#181818;stroke-width:1.0;"/><!--SRC=[TL91RW8n3Bpd5Jx25vP3XKGh8I5KWTfxIBpWAYIhEEs1ga_geUe3AfMFrPli0aNBBVAC9xPdEEcObAfMk2LEKKV6YQhcdWpf26jaEdxxYLADq2XHyF34hpfIW7S5G3MCVdzcoAX1RoDkfSVH9eQxCQGTUXYjZvzZ8G9KqmvVjFYarEujoVzWCMddaENXId-FEzgJxqM12OJaqI2t8xGaz9PgTJNA6ycCZWvz8m-Cytp9uQJbxuvyKvQ3axEq0vDF68tURsXeq_M9Dp_poaP5xg8Csc2Jj1tG4QN760nQZ63ay78RkjP3nmYZPJXrB4EYcepy7T7izA7dvNrkx6Nn9VCPZrzwO9zPnbS5ltaTB5us66jo0ogTruyPFwjyN6PhQiNkd4CROavOTIx5FdhPeN_0eZDEnAe72KpnbK_fvHGQzGS0]--></g></svg>