<?xml version="1.0" encoding="us-ascii" standalone="no"?><svg xmlns="http://www.w3.org/2000/svg" xmlns:xlink="http://www.w3.org/1999/xlink" contentStyleType="text/css" height="951px" preserveAspectRatio="none" style="width:431px;height:951px;background:#FFFFFF;" version="1.1" viewBox="0 0 431 951" width="431px" zoomAndPan="magnify"><defs/><g><!--cluster Sistema de Intercambio de Libros--><g id="cluster_Sistema de Intercambio de Libros"><path d="M147.5,6 L412.5,6 A3.75,3.75 0 0 1 415,8.5 L422,28.2969 L422.11,28.2969 A2.5,2.5 0 0 1 424.61,30.7969 L424.61,941.5 A2.5,2.5 0 0 1 422.11,944 L147.5,944 A2.5,2.5 0 0 1 145,941.5 L145,8.5 A2.5,2.5 0 0 1 147.5,6 " fill="none" style="stroke:#000000;stroke-width:1.5;"/><line style="stroke:#000000;stroke-width:1.5;" x1="145" x2="422" y1="28.2969" y2="28.2969"/><text fill="#000000" font-family="sans-serif" font-size="14" font-weight="bold" lengthAdjust="spacing" textLength="264" x="149" y="20.9951">Sistema de Intercambio de Libros</text></g><g id="elem_U1"><ellipse cx="284.2966" cy="55.9953" fill="#F1F1F1" rx="65.0766" ry="15.4153" style="stroke:#181818;stroke-width:0.5;"/><text fill="#000000" font-family="sans-serif" font-size="14" lengthAdjust="spacing" textLength="79" x="241.7966" y="59.7429">Registrarse</text></g><g id="elem_U2"><ellipse cx="284.304" cy="123.0028" fill="#F1F1F1" rx="68.964" ry="16.1928" style="stroke:#181818;stroke-width:0.5;"/><text fill="#000000" font-family="sans-serif" font-size="14" lengthAdjust="spacing" textLength="90" x="236.304" y="126.7504">Iniciar Sesi&#243;n</text></g><g id="elem_U3"><ellipse cx="284.2988" cy="189.9958" fill="#F1F1F1" rx="69.3288" ry="16.2658" style="stroke:#181818;stroke-width:0.5;"/><text fill="#000000" font-family="sans-serif" font-size="14" lengthAdjust="spacing" textLength="91" x="235.7988" y="193.7433">Agregar Libro</text></g><g id="elem_U4"><ellipse cx="284.2994" cy="256.0019" fill="#F1F1F1" rx="64.0594" ry="15.2119" style="stroke:#181818;stroke-width:0.5;"/><text fill="#000000" font-family="sans-serif" font-size="14" lengthAdjust="spacing" textLength="76" x="243.2994" y="259.7494">Editar Libro</text></g><g id="elem_U5"><ellipse cx="284.304" cy="322.0028" fill="#F1F1F1" rx="68.964" ry="16.1928" style="stroke:#181818;stroke-width:0.5;"/><text fill="#000000" font-family="sans-serif" font-size="14" lengthAdjust="spacing" textLength="90" x="236.304" y="325.7504">Eliminar Libro</text></g><g id="elem_U6"><ellipse cx="284.2976" cy="391.0035" fill="#F1F1F1" rx="76.1676" ry="17.6335" style="stroke:#181818;stroke-width:0.5;"/><text fill="#000000" font-family="sans-serif" font-size="14" lengthAdjust="spacing" textLength="109" x="226.7976" y="394.7511">Visualizar Libros</text></g><g id="elem_U7"><ellipse cx="284.3018" cy="464.0004" fill="#F1F1F1" rx="88.3518" ry="20.0704" style="stroke:#181818;stroke-width:0.5;"/><text fill="#000000" font-family="sans-serif" font-size="14" lengthAdjust="spacing" textLength="138" x="215.3018" y="466.847">Solicitar Intercambio</text></g><g id="elem_U8"><ellipse cx="284.3027" cy="546.0005" fill="#F1F1F1" rx="120.3027" ry="26.4605" style="stroke:#181818;stroke-width:0.5;"/><text fill="#000000" font-family="sans-serif" font-size="14" lengthAdjust="spacing" textLength="208" x="180.3027" y="548.8472">Aceptar/Rechazar Intercambio</text></g><g id="elem_U9"><ellipse cx="284.3034" cy="624.0027" fill="#F1F1F1" rx="70.0634" ry="16.4127" style="stroke:#181818;stroke-width:0.5;"/><text fill="#000000" font-family="sans-serif" font-size="14" lengthAdjust="spacing" textLength="93" x="234.8034" y="627.7502">Dejar Rese&#241;a</text></g><g id="elem_U10"><ellipse cx="284.2963" cy="694.9953" fill="#F1F1F1" rx="84.4263" ry="19.2853" style="stroke:#181818;stroke-width:0.5;"/><text fill="#000000" font-family="sans-serif" font-size="14" lengthAdjust="spacing" textLength="129" x="219.675" y="697.8839">Visualizar Rese&#241;as</text></g><g id="elem_U11"><ellipse cx="284.2994" cy="764.0019" fill="#F1F1F1" rx="64.0594" ry="15.2119" style="stroke:#181818;stroke-width:0.5;"/><text fill="#000000" font-family="sans-serif" font-size="14" lengthAdjust="spacing" textLength="76" x="243.2994" y="767.7494">Editar Perfil</text></g><g id="elem_U12"><ellipse cx="284.3028" cy="835.0046" fill="#F1F1F1" rx="89.6728" ry="20.3346" style="stroke:#181818;stroke-width:0.5;"/><text fill="#000000" font-family="sans-serif" font-size="14" lengthAdjust="spacing" textLength="141" x="213.8028" y="837.8512">Administrar Usuarios</text></g><g id="elem_U13"><ellipse cx="284.2955" cy="908.9991" fill="#F1F1F1" rx="81.4455" ry="18.6891" style="stroke:#181818;stroke-width:0.5;"/><text fill="#000000" font-family="sans-serif" font-size="14" lengthAdjust="spacing" textLength="122" x="222.1609" y="912.219">Administrar Libros</text></g><!--entity U--><g id="elem_U"><ellipse cx="53.5" cy="361.35" fill="#F1F1F1" rx="8" ry="8" style="stroke:#181818;stroke-width:0.5;"/><path d="M53.5,369.35 L53.5,396.35 M40.5,377.35 L66.5,377.35 M53.5,396.35 L40.5,411.35 M53.5,396.35 L66.5,411.35 " fill="none" style="stroke:#181818;stroke-width:0.5;"/><text fill="#000000" font-family="sans-serif" font-size="14" lengthAdjust="spacing" textLength="52" x="27.5" y="425.8451">Usuario</text></g><!--entity A--><g id="elem_A"><ellipse cx="53.5" cy="842.35" fill="#F1F1F1" rx="8" ry="8" style="stroke:#181818;stroke-width:0.5;"/><path d="M53.5,850.35 L53.5,877.35 M40.5,858.35 L66.5,858.35 M53.5,877.35 L40.5,892.35 M53.5,877.35 L66.5,892.35 " fill="none" style="stroke:#181818;stroke-width:0.5;"/><text fill="#000000" font-family="sans-serif" font-size="14" lengthAdjust="spacing" textLength="95" x="6" y="906.8451">Administrador</text></g><!--link U to U1--><g id="link_U_U1"><path d="M60.01,352.57 C71.24,279.68 98.94,125.39 137,89 C157.21,69.68 186.2,60.76 213.05,56.92 " fill="none" id="U-to-U1" style="stroke:#181818;stroke-width:1.0;"/><polygon fill="#181818" points="217.74,56.17,208.3003,53.3607,212.7815,56.813,209.3292,61.2942,217.74,56.17" style="stroke:#181818;stroke-width:1.0;"/></g><!--link U to U2--><g id="link_U_U2"><path d="M56.85,352.66 C62.19,300.28 79.68,207.04 137,156 C156.8,138.37 183.98,129.55 209.55,125.31 " fill="none" id="U-to-U2" style="stroke:#181818;stroke-width:1.0;"/><polygon fill="#181818" points="214.32,124.42,204.8181,121.8288,209.3776,125.1771,206.0294,129.7366,214.32,124.42" style="stroke:#181818;stroke-width:1.0;"/></g><!--link U to U3--><g id="link_U_U3"><path d="M63.09,352.51 C73.75,313.86 95.8,255.51 137,223 C157.62,206.73 184.7,198.16 209.96,193.74 " fill="none" id="U-to-U3" style="stroke:#181818;stroke-width:1.0;"/><polygon fill="#181818" points="214.65,192.81,205.1195,190.3261,209.7165,193.6227,206.4199,198.2197,214.65,192.81" style="stroke:#181818;stroke-width:1.0;"/></g><!--link U to U4--><g id="link_U_U4"><path d="M76.23,352.38 C90.65,330.22 111.6,303.77 137,288 C160.62,273.34 190.03,265.35 216.27,261 " fill="none" id="U-to-U4" style="stroke:#181818;stroke-width:1.0;"/><polygon fill="#181818" points="221.17,260.08,211.6597,257.5199,216.2301,260.8532,212.8968,265.4236,221.17,260.08" style="stroke:#181818;stroke-width:1.0;"/></g><!--link U to U5--><g id="link_U_U5"><path d="M79.71,378.96 C95.82,371.6 117.32,362.41 137,356 C165.13,346.84 197.05,339.12 223.89,333.37 " fill="none" id="U-to-U5" style="stroke:#181818;stroke-width:1.0;"/><polygon fill="#181818" points="228.53,332.17,218.899,330.1099,223.6373,333.2001,220.5471,337.9383,228.53,332.17" style="stroke:#181818;stroke-width:1.0;"/></g><!--link U to U6--><g id="link_U_U6"><path d="M79.86,391 C109.2,391 158.99,391 201.97,391 " fill="none" id="U-to-U6" style="stroke:#181818;stroke-width:1.0;"/><polygon fill="#181818" points="206.72,391,197.72,387,201.72,391,197.72,395,206.72,391" style="stroke:#181818;stroke-width:1.0;"/></g><!--link U to U7--><g id="link_U_U7"><path d="M79.77,402.86 C95.91,410.15 117.41,419.34 137,426 C162.06,434.52 190.09,442.23 214.85,448.44 " fill="none" id="U-to-U7" style="stroke:#181818;stroke-width:1.0;"/><polygon fill="#181818" points="219.41,449.82,211.6321,443.7781,214.5559,448.6208,209.7133,451.5446,219.41,449.82" style="stroke:#181818;stroke-width:1.0;"/></g><!--link U to U8--><g id="link_U_U8"><path d="M74.59,429.47 C88.98,453.53 110.47,483.38 137,502 C151.95,512.49 169.45,520.53 187.04,526.66 " fill="none" id="U-to-U8" style="stroke:#181818;stroke-width:1.0;"/><polygon fill="#181818" points="191.5,528.5,184.2569,521.8264,186.7638,526.8974,181.6927,529.4043,191.5,528.5" style="stroke:#181818;stroke-width:1.0;"/></g><!--link U to U9--><g id="link_U_U9"><path d="M59.75,429.37 C68.03,474.63 88.5,548.89 137,590 C156.97,606.93 183.79,615.81 209,620.35 " fill="none" id="U-to-U9" style="stroke:#181818;stroke-width:1.0;"/><polygon fill="#181818" points="213.69,621.31,205.4777,615.8733,208.7592,620.4811,204.1514,623.7625,213.69,621.31" style="stroke:#181818;stroke-width:1.0;"/></g><!--link U to U10--><g id="link_U_U10"><path d="M55.12,429.31 C58.2,487.3 72.79,597.04 137,658 C153.38,673.55 175.31,682.82 197.21,688.28 " fill="none" id="U-to-U10" style="stroke:#181818;stroke-width:1.0;"/><polygon fill="#181818" points="201.77,689.59,193.9215,683.6401,196.9022,688.448,192.0943,691.4286,201.77,689.59" style="stroke:#181818;stroke-width:1.0;"/></g><!--link U to U11--><g id="link_U_U11"><path d="M58.68,429.39 C68.18,509.36 93.95,689.89 137,732 C157.3,751.86 186.91,760.6 214.2,764.09 " fill="none" id="U-to-U11" style="stroke:#181818;stroke-width:1.0;"/><polygon fill="#181818" points="218.98,764.76,210.4956,759.7584,214.0127,764.189,209.5821,767.7061,218.98,764.76" style="stroke:#181818;stroke-width:1.0;"/></g><!--link A to U12--><g id="link_A_U12"><path d="M101.35,864.42 C131.02,859.63 170.12,853.3 204.47,847.75 " fill="none" id="A-to-U12" style="stroke:#181818;stroke-width:1.0;"/><polygon fill="#181818" points="209.38,846.79,199.8565,844.2793,204.4442,847.5889,201.1347,852.1766,209.38,846.79" style="stroke:#181818;stroke-width:1.0;"/></g><!--link A to U13--><g id="link_A_U13"><path d="M101.35,879.58 C132.88,884.67 175.06,891.5 210.87,897.29 " fill="none" id="A-to-U13" style="stroke:#181818;stroke-width:1.0;"/><polygon fill="#181818" points="215.56,898.21,207.3147,892.8234,210.6242,897.4111,206.0365,900.7207,215.56,898.21" style="stroke:#181818;stroke-width:1.0;"/></g><!--SRC=[TP5DReCm44RtFiKe-wW1yhk9XDGk8dLHWUZUCHCoBU38TZQfUgYgHyZ5we1DZPJidlaUuvbnZGS3HeAYwcYW98N2a6mPuy981OK-SqKIk8R2VKhBXbhIHl7IdcoGCdRYufDN29FS1jXmA15shK4bUBEtlzlZA-sLr1FuOW1dZO9hgsTOTPMKnabtHnIckvO4SGKvQhh-jhqHXqPQAQoiqHNlyoJCNqeoutW-Yckoiuo5HIYyavs_fejNTEyiGoUNjMtpTaqmSU-jHhqAF5dhAKDnv9Tx-ZhKd_73EXbglFxmFjyyQCr9hhbeTcS3RwWEL3jXjEJ_vnnUsnUA7tdXBgA4VJDMm7IwlJsVWzX3uc7kOU5XwM7bOUrXCnIS3HInr54yKCB-0000]--></g></svg>