<?xml version="1.0" encoding="us-ascii" standalone="no"?><svg xmlns="http://www.w3.org/2000/svg" xmlns:xlink="http://www.w3.org/1999/xlink" contentStyleType="text/css" height="753px" preserveAspectRatio="none" style="width:572px;height:753px;background:#FFFFFF;" version="1.1" viewBox="0 0 572 753" width="572px" zoomAndPan="magnify"><defs/><g><!--cluster Models--><g id="cluster_Models"><path d="M8.5,6 L65.5,6 A3.75,3.75 0 0 1 68,8.5 L75,28.2969 L562.5,28.2969 A2.5,2.5 0 0 1 565,30.7969 L565,743.63 A2.5,2.5 0 0 1 562.5,746.13 L8.5,746.13 A2.5,2.5 0 0 1 6,743.63 L6,8.5 A2.5,2.5 0 0 1 8.5,6 " fill="none" style="stroke:#000000;stroke-width:1.5;"/><line style="stroke:#000000;stroke-width:1.5;" x1="6" x2="75" y1="28.2969" y2="28.2969"/><text fill="#000000" font-family="sans-serif" font-size="14" font-weight="bold" lengthAdjust="spacing" textLength="56" x="10" y="20.9951">Models</text></g><!--class User--><g id="elem_User"><rect codeLine="4" fill="#F1F1F1" height="178.375" id="User" rx="2.5" ry="2.5" style="stroke:#181818;stroke-width:0.5;" width="269" x="96.5" y="41"/><ellipse cx="210.75" cy="57" fill="#ADD1B2" rx="11" ry="11" style="stroke:#181818;stroke-width:1.0;"/><path d="M213.7188,62.6406 Q213.1406,62.9375 212.5,63.0781 Q211.8594,63.2344 211.1563,63.2344 Q208.6563,63.2344 207.3281,61.5938 Q206.0156,59.9375 206.0156,56.8125 Q206.0156,53.6875 207.3281,52.0313 Q208.6563,50.375 211.1563,50.375 Q211.8594,50.375 212.5,50.5313 Q213.1563,50.6875 213.7188,50.9844 L213.7188,53.7031 Q213.0938,53.125 212.5,52.8594 Q211.9063,52.5781 211.2813,52.5781 Q209.9375,52.5781 209.25,53.6563 Q208.5625,54.7188 208.5625,56.8125 Q208.5625,58.9063 209.25,59.9844 Q209.9375,61.0469 211.2813,61.0469 Q211.9063,61.0469 212.5,60.7813 Q213.0938,60.5 213.7188,59.9219 L213.7188,62.6406 Z " fill="#000000"/><text fill="#000000" font-family="sans-serif" font-size="14" lengthAdjust="spacing" textLength="32" x="231.25" y="61.8467">User</text><line style="stroke:#181818;stroke-width:0.5;" x1="97.5" x2="364.5" y1="73" y2="73"/><ellipse cx="107.5" cy="86.6484" fill="none" rx="3" ry="3" style="stroke:#038048;stroke-width:1.0;"/><text fill="#000000" font-family="sans-serif" font-size="14" lengthAdjust="spacing" textLength="38" x="116.5" y="89.9951">id: int</text><ellipse cx="107.5" cy="102.9453" fill="none" rx="3" ry="3" style="stroke:#038048;stroke-width:1.0;"/><text fill="#000000" font-family="sans-serif" font-size="14" lengthAdjust="spacing" textLength="87" x="116.5" y="106.292">name: string</text><ellipse cx="107.5" cy="119.2422" fill="none" rx="3" ry="3" style="stroke:#038048;stroke-width:1.0;"/><text fill="#000000" font-family="sans-serif" font-size="14" lengthAdjust="spacing" textLength="84" x="116.5" y="122.5889">email: string</text><ellipse cx="107.5" cy="135.5391" fill="none" rx="3" ry="3" style="stroke:#038048;stroke-width:1.0;"/><text fill="#000000" font-family="sans-serif" font-size="14" lengthAdjust="spacing" textLength="115" x="116.5" y="138.8857">password: string</text><line style="stroke:#181818;stroke-width:0.5;" x1="97.5" x2="364.5" y1="146.1875" y2="146.1875"/><ellipse cx="107.5" cy="159.8359" fill="#84BE84" rx="3" ry="3" style="stroke:#038048;stroke-width:1.0;"/><text fill="#000000" font-family="sans-serif" font-size="14" lengthAdjust="spacing" textLength="130" x="116.5" y="163.1826">books(): Collection</text><ellipse cx="107.5" cy="176.1328" fill="#84BE84" rx="3" ry="3" style="stroke:#038048;stroke-width:1.0;"/><text fill="#000000" font-family="sans-serif" font-size="14" lengthAdjust="spacing" textLength="243" x="116.5" y="179.4795">exchangesAsBorrower(): Collection</text><ellipse cx="107.5" cy="192.4297" fill="#84BE84" rx="3" ry="3" style="stroke:#038048;stroke-width:1.0;"/><text fill="#000000" font-family="sans-serif" font-size="14" lengthAdjust="spacing" textLength="228" x="116.5" y="195.7764">exchangesAsLender(): Collection</text><ellipse cx="107.5" cy="208.7266" fill="#84BE84" rx="3" ry="3" style="stroke:#038048;stroke-width:1.0;"/><text fill="#000000" font-family="sans-serif" font-size="14" lengthAdjust="spacing" textLength="139" x="116.5" y="212.0732">reviews(): Collection</text></g><!--class Book--><g id="elem_Book"><rect codeLine="16" fill="#F1F1F1" height="178.375" id="Book" rx="2.5" ry="2.5" style="stroke:#181818;stroke-width:0.5;" width="189" x="250.5" y="296.38"/><ellipse cx="322.75" cy="312.38" fill="#ADD1B2" rx="11" ry="11" style="stroke:#181818;stroke-width:1.0;"/><path d="M325.7188,318.0206 Q325.1406,318.3175 324.5,318.4581 Q323.8594,318.6144 323.1563,318.6144 Q320.6563,318.6144 319.3281,316.9738 Q318.0156,315.3175 318.0156,312.1925 Q318.0156,309.0675 319.3281,307.4113 Q320.6563,305.755 323.1563,305.755 Q323.8594,305.755 324.5,305.9113 Q325.1563,306.0675 325.7188,306.3644 L325.7188,309.0831 Q325.0938,308.505 324.5,308.2394 Q323.9063,307.9581 323.2813,307.9581 Q321.9375,307.9581 321.25,309.0363 Q320.5625,310.0988 320.5625,312.1925 Q320.5625,314.2863 321.25,315.3644 Q321.9375,316.4269 323.2813,316.4269 Q323.9063,316.4269 324.5,316.1613 Q325.0938,315.88 325.7188,315.3019 L325.7188,318.0206 Z " fill="#000000"/><text fill="#000000" font-family="sans-serif" font-size="14" lengthAdjust="spacing" textLength="36" x="343.25" y="317.2267">Book</text><line style="stroke:#181818;stroke-width:0.5;" x1="251.5" x2="438.5" y1="328.38" y2="328.38"/><ellipse cx="261.5" cy="342.0284" fill="none" rx="3" ry="3" style="stroke:#038048;stroke-width:1.0;"/><text fill="#000000" font-family="sans-serif" font-size="14" lengthAdjust="spacing" textLength="38" x="270.5" y="345.3751">id: int</text><ellipse cx="261.5" cy="358.3253" fill="none" rx="3" ry="3" style="stroke:#038048;stroke-width:1.0;"/><text fill="#000000" font-family="sans-serif" font-size="14" lengthAdjust="spacing" textLength="76" x="270.5" y="361.672">user_id: int</text><ellipse cx="261.5" cy="374.6222" fill="none" rx="3" ry="3" style="stroke:#038048;stroke-width:1.0;"/><text fill="#000000" font-family="sans-serif" font-size="14" lengthAdjust="spacing" textLength="73" x="270.5" y="377.9689">title: string</text><ellipse cx="261.5" cy="390.9191" fill="none" rx="3" ry="3" style="stroke:#038048;stroke-width:1.0;"/><text fill="#000000" font-family="sans-serif" font-size="14" lengthAdjust="spacing" textLength="93" x="270.5" y="394.2657">author: string</text><ellipse cx="261.5" cy="407.2159" fill="none" rx="3" ry="3" style="stroke:#038048;stroke-width:1.0;"/><text fill="#000000" font-family="sans-serif" font-size="14" lengthAdjust="spacing" textLength="146" x="270.5" y="410.5626">published_date: date</text><line style="stroke:#181818;stroke-width:0.5;" x1="251.5" x2="438.5" y1="417.8644" y2="417.8644"/><ellipse cx="261.5" cy="431.5128" fill="#84BE84" rx="3" ry="3" style="stroke:#038048;stroke-width:1.0;"/><text fill="#000000" font-family="sans-serif" font-size="14" lengthAdjust="spacing" textLength="94" x="270.5" y="434.8595">owner(): User</text><ellipse cx="261.5" cy="447.8097" fill="#84BE84" rx="3" ry="3" style="stroke:#038048;stroke-width:1.0;"/><text fill="#000000" font-family="sans-serif" font-size="14" lengthAdjust="spacing" textLength="163" x="270.5" y="451.1564">exchanges(): Collection</text><ellipse cx="261.5" cy="464.1066" fill="#84BE84" rx="3" ry="3" style="stroke:#038048;stroke-width:1.0;"/><text fill="#000000" font-family="sans-serif" font-size="14" lengthAdjust="spacing" textLength="139" x="270.5" y="467.4532">reviews(): Collection</text></g><!--class Exchange--><g id="elem_Exchange"><rect codeLine="28" fill="#F1F1F1" height="178.375" id="Exchange" rx="2.5" ry="2.5" style="stroke:#181818;stroke-width:0.5;" width="172" x="93" y="551.75"/><ellipse cx="140.75" cy="567.75" fill="#ADD1B2" rx="11" ry="11" style="stroke:#181818;stroke-width:1.0;"/><path d="M143.7188,573.3906 Q143.1406,573.6875 142.5,573.8281 Q141.8594,573.9844 141.1563,573.9844 Q138.6563,573.9844 137.3281,572.3438 Q136.0156,570.6875 136.0156,567.5625 Q136.0156,564.4375 137.3281,562.7813 Q138.6563,561.125 141.1563,561.125 Q141.8594,561.125 142.5,561.2813 Q143.1563,561.4375 143.7188,561.7344 L143.7188,564.4531 Q143.0938,563.875 142.5,563.6094 Q141.9063,563.3281 141.2813,563.3281 Q139.9375,563.3281 139.25,564.4063 Q138.5625,565.4688 138.5625,567.5625 Q138.5625,569.6563 139.25,570.7344 Q139.9375,571.7969 141.2813,571.7969 Q141.9063,571.7969 142.5,571.5313 Q143.0938,571.25 143.7188,570.6719 L143.7188,573.3906 Z " fill="#000000"/><text fill="#000000" font-family="sans-serif" font-size="14" lengthAdjust="spacing" textLength="68" x="161.25" y="572.5967">Exchange</text><line style="stroke:#181818;stroke-width:0.5;" x1="94" x2="264" y1="583.75" y2="583.75"/><ellipse cx="104" cy="597.3984" fill="none" rx="3" ry="3" style="stroke:#038048;stroke-width:1.0;"/><text fill="#000000" font-family="sans-serif" font-size="14" lengthAdjust="spacing" textLength="38" x="113" y="600.7451">id: int</text><ellipse cx="104" cy="613.6953" fill="none" rx="3" ry="3" style="stroke:#038048;stroke-width:1.0;"/><text fill="#000000" font-family="sans-serif" font-size="14" lengthAdjust="spacing" textLength="107" x="113" y="617.042">borrower_id: int</text><ellipse cx="104" cy="629.9922" fill="none" rx="3" ry="3" style="stroke:#038048;stroke-width:1.0;"/><text fill="#000000" font-family="sans-serif" font-size="14" lengthAdjust="spacing" textLength="89" x="113" y="633.3389">lender_id: int</text><ellipse cx="104" cy="646.2891" fill="none" rx="3" ry="3" style="stroke:#038048;stroke-width:1.0;"/><text fill="#000000" font-family="sans-serif" font-size="14" lengthAdjust="spacing" textLength="80" x="113" y="649.6357">book_id: int</text><ellipse cx="104" cy="662.5859" fill="none" rx="3" ry="3" style="stroke:#038048;stroke-width:1.0;"/><text fill="#000000" font-family="sans-serif" font-size="14" lengthAdjust="spacing" textLength="146" x="113" y="665.9326">exchange_date: date</text><line style="stroke:#181818;stroke-width:0.5;" x1="94" x2="264" y1="673.2344" y2="673.2344"/><ellipse cx="104" cy="686.8828" fill="#84BE84" rx="3" ry="3" style="stroke:#038048;stroke-width:1.0;"/><text fill="#000000" font-family="sans-serif" font-size="14" lengthAdjust="spacing" textLength="113" x="113" y="690.2295">borrower(): User</text><ellipse cx="104" cy="703.1797" fill="#84BE84" rx="3" ry="3" style="stroke:#038048;stroke-width:1.0;"/><text fill="#000000" font-family="sans-serif" font-size="14" lengthAdjust="spacing" textLength="95" x="113" y="706.5264">lender(): User</text><ellipse cx="104" cy="719.4766" fill="#84BE84" rx="3" ry="3" style="stroke:#038048;stroke-width:1.0;"/><text fill="#000000" font-family="sans-serif" font-size="14" lengthAdjust="spacing" textLength="90" x="113" y="722.8232">book(): Book</text></g><!--class Review--><g id="elem_Review"><rect codeLine="40" fill="#F1F1F1" height="162.0781" id="Review" rx="2.5" ry="2.5" style="stroke:#181818;stroke-width:0.5;" width="140" x="355" y="559.9"/><ellipse cx="396.55" cy="575.9" fill="#ADD1B2" rx="11" ry="11" style="stroke:#181818;stroke-width:1.0;"/><path d="M399.5188,581.5406 Q398.9406,581.8375 398.3,581.9781 Q397.6594,582.1344 396.9563,582.1344 Q394.4563,582.1344 393.1281,580.4938 Q391.8156,578.8375 391.8156,575.7125 Q391.8156,572.5875 393.1281,570.9313 Q394.4563,569.275 396.9563,569.275 Q397.6594,569.275 398.3,569.4313 Q398.9563,569.5875 399.5188,569.8844 L399.5188,572.6031 Q398.8938,572.025 398.3,571.7594 Q397.7063,571.4781 397.0813,571.4781 Q395.7375,571.4781 395.05,572.5563 Q394.3625,573.6188 394.3625,575.7125 Q394.3625,577.8063 395.05,578.8844 Q395.7375,579.9469 397.0813,579.9469 Q397.7063,579.9469 398.3,579.6813 Q398.8938,579.4 399.5188,578.8219 L399.5188,581.5406 Z " fill="#000000"/><text fill="#000000" font-family="sans-serif" font-size="14" lengthAdjust="spacing" textLength="49" x="416.45" y="580.7467">Review</text><line style="stroke:#181818;stroke-width:0.5;" x1="356" x2="494" y1="591.9" y2="591.9"/><ellipse cx="366" cy="605.5484" fill="none" rx="3" ry="3" style="stroke:#038048;stroke-width:1.0;"/><text fill="#000000" font-family="sans-serif" font-size="14" lengthAdjust="spacing" textLength="38" x="375" y="608.8951">id: int</text><ellipse cx="366" cy="621.8453" fill="none" rx="3" ry="3" style="stroke:#038048;stroke-width:1.0;"/><text fill="#000000" font-family="sans-serif" font-size="14" lengthAdjust="spacing" textLength="76" x="375" y="625.192">user_id: int</text><ellipse cx="366" cy="638.1422" fill="none" rx="3" ry="3" style="stroke:#038048;stroke-width:1.0;"/><text fill="#000000" font-family="sans-serif" font-size="14" lengthAdjust="spacing" textLength="80" x="375" y="641.4889">book_id: int</text><ellipse cx="366" cy="654.4391" fill="none" rx="3" ry="3" style="stroke:#038048;stroke-width:1.0;"/><text fill="#000000" font-family="sans-serif" font-size="14" lengthAdjust="spacing" textLength="65" x="375" y="657.7857">rating: int</text><ellipse cx="366" cy="670.7359" fill="none" rx="3" ry="3" style="stroke:#038048;stroke-width:1.0;"/><text fill="#000000" font-family="sans-serif" font-size="14" lengthAdjust="spacing" textLength="114" x="375" y="674.0826">comment: string</text><line style="stroke:#181818;stroke-width:0.5;" x1="356" x2="494" y1="681.3844" y2="681.3844"/><ellipse cx="366" cy="695.0328" fill="#84BE84" rx="3" ry="3" style="stroke:#038048;stroke-width:1.0;"/><text fill="#000000" font-family="sans-serif" font-size="14" lengthAdjust="spacing" textLength="82" x="375" y="698.3795">user(): User</text><ellipse cx="366" cy="711.3297" fill="#84BE84" rx="3" ry="3" style="stroke:#038048;stroke-width:1.0;"/><text fill="#000000" font-family="sans-serif" font-size="14" lengthAdjust="spacing" textLength="90" x="375" y="714.6764">book(): Book</text></g><!--link User to Book--><g id="link_User_Book"><path codeLine="51" d="M270.87,219.81 C281.98,244.5 294.04,271.31 305.15,296 " fill="none" id="User-Book" style="stroke:#181818;stroke-width:1.0;"/><text fill="#000000" font-family="sans-serif" font-size="13" lengthAdjust="spacing" textLength="32" x="292" y="262.4469">owns</text><text fill="#000000" font-family="sans-serif" font-size="13" lengthAdjust="spacing" textLength="8" x="265.6163" y="239.3179">1</text><text fill="#000000" font-family="sans-serif" font-size="13" lengthAdjust="spacing" textLength="7" x="294.6955" y="285.3371">*</text></g><!--link User to Exchange--><g id="link_User_Exchange"><path codeLine="52" d="M131.69,219.57 C112.23,242.46 94.58,268.57 84,296.38 C55.81,370.47 63.55,398.16 84,474.75 C91.04,501.12 103.41,527.65 116.94,551.5 " fill="none" id="User-Exchange" style="stroke:#181818;stroke-width:1.0;"/><text fill="#000000" font-family="sans-serif" font-size="13" lengthAdjust="spacing" textLength="50" x="85" y="390.1369">borrows</text><text fill="#000000" font-family="sans-serif" font-size="13" lengthAdjust="spacing" textLength="8" x="115.4575" y="239.3625">1</text><text fill="#000000" font-family="sans-serif" font-size="13" lengthAdjust="spacing" textLength="7" x="104.5108" y="540.5448">*</text></g><!--link User to Exchange--><g id="link_User_Exchange"><path codeLine="53" d="M210.26,219.51 C205.15,244.26 200.22,271.26 197,296.38 C185.94,382.58 181.63,481.77 179.98,551.35 " fill="none" id="User-Exchange-1" style="stroke:#181818;stroke-width:1.0;"/><text fill="#000000" font-family="sans-serif" font-size="13" lengthAdjust="spacing" textLength="34" x="198" y="390.1369">lends</text><text fill="#000000" font-family="sans-serif" font-size="13" lengthAdjust="spacing" textLength="8" x="200.2885" y="239.2977">1</text><text fill="#000000" font-family="sans-serif" font-size="13" lengthAdjust="spacing" textLength="7" x="172.7792" y="540.6855">*</text></g><!--link User to Review--><g id="link_User_Review"><path codeLine="54" d="M365.79,198.83 C402.07,224.14 436.81,256.62 457,296.38 C498.9,378.9 478.57,486.96 455.86,559.66 " fill="none" id="User-Review" style="stroke:#181818;stroke-width:1.0;"/><text fill="#000000" font-family="sans-serif" font-size="13" lengthAdjust="spacing" textLength="37" x="482" y="390.1369">writes</text><text fill="#000000" font-family="sans-serif" font-size="13" lengthAdjust="spacing" textLength="8" x="373.3801" y="199.2443">1</text><text fill="#000000" font-family="sans-serif" font-size="13" lengthAdjust="spacing" textLength="7" x="451.2968" y="548.8259">*</text></g><!--link Book to Exchange--><g id="link_Book_Exchange"><path codeLine="55" d="M286.94,475.19 C270.77,499.87 253.2,526.69 237.03,551.37 " fill="none" id="Book-Exchange" style="stroke:#181818;stroke-width:1.0;"/><text fill="#000000" font-family="sans-serif" font-size="13" lengthAdjust="spacing" textLength="70" x="267" y="517.8169">exchanged</text><text fill="#000000" font-family="sans-serif" font-size="13" lengthAdjust="spacing" textLength="8" x="274.1885" y="494.6979">1</text><text fill="#000000" font-family="sans-serif" font-size="13" lengthAdjust="spacing" textLength="7" x="234.3754" y="540.7071">*</text></g><!--link Book to Review--><g id="link_Book_Review"><path codeLine="56" d="M372.98,475.19 C381.63,502.59 391.11,532.6 399.58,559.42 " fill="none" id="Book-Review" style="stroke:#181818;stroke-width:1.0;"/><text fill="#000000" font-family="sans-serif" font-size="13" lengthAdjust="spacing" textLength="56" x="388" y="517.8169">reviewed</text><text fill="#000000" font-family="sans-serif" font-size="13" lengthAdjust="spacing" textLength="8" x="366.816" y="494.6979">1</text><text fill="#000000" font-family="sans-serif" font-size="13" lengthAdjust="spacing" textLength="7" x="390.0947" y="548.8425">*</text></g><!--SRC=[dL8zRuCm5Dpv5KzC_L26hjwQgbkpLEgC37u2AyOliasfLEM_ryOG0bXDLGOadu_ZxjuxyUh8QuJyG0ALpU4xom0gnQs53ul6dy4_Zr8maDh5W-OjCh3EI5r715ikrH8wUOcUZBYW4Iw9ZlRkdi4BAOMLawH7YQ-guRf6-sptP0prQ6xGtb2BDCdWfyH- -vlp76xlVIJ3TJvriK2ST6gLbtUk8RCAt9LAsWP58RZp_F0UGrElez5GwIh7F_s_ZjydCvHZWSiSQkYhM37fk4GcOziKvTLOvY3gCeKP2we12IKlRRyFoVvO_DQSuSxtVGLKrBQetMh9WjHjHyD-vqyvx7QGF-J37GC_AvkudFfc46ludHDAIJ5YV0QzaGu3OLZ3fCGq1v5WJJ9nJpmbEsS_]--></g></svg>