<?xml version="1.0" encoding="us-ascii" standalone="no"?><svg xmlns="http://www.w3.org/2000/svg" xmlns:xlink="http://www.w3.org/1999/xlink" contentStyleType="text/css" height="622px" preserveAspectRatio="none" style="width:1651px;height:622px;background:#FFFFFF;" version="1.1" viewBox="0 0 1651 622" width="1651px" zoomAndPan="magnify"><defs/><g><!--cluster Desarrollo--><g id="cluster_Desarrollo"><path d="M194.5,78.3 L276.5,78.3 A3.75,3.75 0 0 1 279,80.8 L286,100.5969 L863.5,100.5969 A2.5,2.5 0 0 1 866,103.0969 L866,279.39 A2.5,2.5 0 0 1 863.5,281.89 L194.5,281.89 A2.5,2.5 0 0 1 192,279.39 L192,80.8 A2.5,2.5 0 0 1 194.5,78.3 " fill="none" style="stroke:#000000;stroke-width:1.5;"/><line style="stroke:#000000;stroke-width:1.5;" x1="192" x2="286" y1="100.5969" y2="100.5969"/><text fill="#000000" font-family="sans-serif" font-size="14" font-weight="bold" lengthAdjust="spacing" textLength="81" x="196" y="93.2951">Desarrollo</text></g><!--cluster Pruebas--><g id="cluster_Pruebas"><path d="M892.5,78.3 L958.5,78.3 A3.75,3.75 0 0 1 961,80.8 L968,100.5969 L1577.5,100.5969 A2.5,2.5 0 0 1 1580,103.0969 L1580,279.39 A2.5,2.5 0 0 1 1577.5,281.89 L892.5,281.89 A2.5,2.5 0 0 1 890,279.39 L890,80.8 A2.5,2.5 0 0 1 892.5,78.3 " fill="none" style="stroke:#000000;stroke-width:1.5;"/><line style="stroke:#000000;stroke-width:1.5;" x1="890" x2="968" y1="100.5969" y2="100.5969"/><text fill="#000000" font-family="sans-serif" font-size="14" font-weight="bold" lengthAdjust="spacing" textLength="65" x="894" y="93.2951">Pruebas</text></g><!--cluster Producci?n--><g id="cluster_Producci&#243;n"><path d="M188.5,305.89 L278.5,305.89 A3.75,3.75 0 0 1 281,308.39 L288,328.1869 L1166.5,328.1869 A2.5,2.5 0 0 1 1169,330.6869 L1169,613.28 A2.5,2.5 0 0 1 1166.5,615.78 L188.5,615.78 A2.5,2.5 0 0 1 186,613.28 L186,308.39 A2.5,2.5 0 0 1 188.5,305.89 " fill="none" style="stroke:#000000;stroke-width:1.5;"/><line style="stroke:#000000;stroke-width:1.5;" x1="186" x2="288" y1="328.1869" y2="328.1869"/><text fill="#000000" font-family="sans-serif" font-size="14" font-weight="bold" lengthAdjust="spacing" textLength="89" x="190" y="320.8851">Producci&#243;n</text></g><!--entity Entorno de Desarrollo--><g id="elem_Entorno de Desarrollo"><rect fill="#F1F1F1" height="46.2969" rx="2.5" ry="2.5" style="stroke:#181818;stroke-width:0.5;" width="191" x="208.5" y="113.3"/><rect fill="#F1F1F1" height="10" style="stroke:#181818;stroke-width:0.5;" width="15" x="379.5" y="118.3"/><rect fill="#F1F1F1" height="2" style="stroke:#181818;stroke-width:0.5;" width="4" x="377.5" y="120.3"/><rect fill="#F1F1F1" height="2" style="stroke:#181818;stroke-width:0.5;" width="4" x="377.5" y="124.3"/><text fill="#000000" font-family="sans-serif" font-size="14" lengthAdjust="spacing" textLength="151" x="223.5" y="146.2951">Entorno de Desarrollo</text></g><!--entity Repositorio Git--><g id="elem_Repositorio Git"><rect fill="#F1F1F1" height="46.2969" rx="2.5" ry="2.5" style="stroke:#181818;stroke-width:0.5;" width="142" x="435" y="113.3"/><rect fill="#F1F1F1" height="10" style="stroke:#181818;stroke-width:0.5;" width="15" x="557" y="118.3"/><rect fill="#F1F1F1" height="2" style="stroke:#181818;stroke-width:0.5;" width="4" x="555" y="120.3"/><rect fill="#F1F1F1" height="2" style="stroke:#181818;stroke-width:0.5;" width="4" x="555" y="124.3"/><text fill="#000000" font-family="sans-serif" font-size="14" lengthAdjust="spacing" textLength="102" x="450" y="146.2951">Repositorio Git</text></g><!--entity Base de Datos de Desarrollo--><g id="elem_Base de Datos de Desarrollo"><rect fill="#F1F1F1" height="46.2969" rx="2.5" ry="2.5" style="stroke:#181818;stroke-width:0.5;" width="238" x="612" y="113.3"/><rect fill="#F1F1F1" height="10" style="stroke:#181818;stroke-width:0.5;" width="15" x="830" y="118.3"/><rect fill="#F1F1F1" height="2" style="stroke:#181818;stroke-width:0.5;" width="4" x="828" y="120.3"/><rect fill="#F1F1F1" height="2" style="stroke:#181818;stroke-width:0.5;" width="4" x="828" y="124.3"/><text fill="#000000" font-family="sans-serif" font-size="14" lengthAdjust="spacing" textLength="198" x="627" y="146.2951">Base de Datos de Desarrollo</text></g><!--entity Frontend de Desarrollo--><g id="elem_Frontend de Desarrollo"><rect fill="#F1F1F1" height="46.2969" rx="2.5" ry="2.5" style="stroke:#181818;stroke-width:0.5;" width="199" x="219.5" y="219.59"/><rect fill="#F1F1F1" height="10" style="stroke:#181818;stroke-width:0.5;" width="15" x="398.5" y="224.59"/><rect fill="#F1F1F1" height="2" style="stroke:#181818;stroke-width:0.5;" width="4" x="396.5" y="226.59"/><rect fill="#F1F1F1" height="2" style="stroke:#181818;stroke-width:0.5;" width="4" x="396.5" y="230.59"/><text fill="#000000" font-family="sans-serif" font-size="14" lengthAdjust="spacing" textLength="159" x="234.5" y="252.5851">Frontend de Desarrollo</text></g><!--entity Servidor de Desarrollo: AWS EC2--><g id="elem_Servidor de Desarrollo: AWS EC2"><rect fill="#F1F1F1" height="46.2969" rx="2.5" ry="2.5" style="stroke:#181818;stroke-width:0.5;" width="264" x="454" y="219.59"/><rect fill="#F1F1F1" height="10" style="stroke:#181818;stroke-width:0.5;" width="15" x="698" y="224.59"/><rect fill="#F1F1F1" height="2" style="stroke:#181818;stroke-width:0.5;" width="4" x="696" y="226.59"/><rect fill="#F1F1F1" height="2" style="stroke:#181818;stroke-width:0.5;" width="4" x="696" y="230.59"/><text fill="#000000" font-family="sans-serif" font-size="14" lengthAdjust="spacing" textLength="224" x="469" y="252.5851">Servidor de Desarrollo: AWS EC2</text></g><!--entity Entorno de Pruebas--><g id="elem_Entorno de Pruebas"><rect fill="#F1F1F1" height="46.2969" rx="2.5" ry="2.5" style="stroke:#181818;stroke-width:0.5;" width="178" x="906" y="113.3"/><rect fill="#F1F1F1" height="10" style="stroke:#181818;stroke-width:0.5;" width="15" x="1064" y="118.3"/><rect fill="#F1F1F1" height="2" style="stroke:#181818;stroke-width:0.5;" width="4" x="1062" y="120.3"/><rect fill="#F1F1F1" height="2" style="stroke:#181818;stroke-width:0.5;" width="4" x="1062" y="124.3"/><text fill="#000000" font-family="sans-serif" font-size="14" lengthAdjust="spacing" textLength="138" x="921" y="146.2951">Entorno de Pruebas</text></g><!--entity Base de Datos de Pruebas--><g id="elem_Base de Datos de Pruebas"><rect fill="#F1F1F1" height="46.2969" rx="2.5" ry="2.5" style="stroke:#181818;stroke-width:0.5;" width="225" x="1118.5" y="113.3"/><rect fill="#F1F1F1" height="10" style="stroke:#181818;stroke-width:0.5;" width="15" x="1323.5" y="118.3"/><rect fill="#F1F1F1" height="2" style="stroke:#181818;stroke-width:0.5;" width="4" x="1321.5" y="120.3"/><rect fill="#F1F1F1" height="2" style="stroke:#181818;stroke-width:0.5;" width="4" x="1321.5" y="124.3"/><text fill="#000000" font-family="sans-serif" font-size="14" lengthAdjust="spacing" textLength="185" x="1133.5" y="146.2951">Base de Datos de Pruebas</text></g><!--entity Frontend de Pruebas--><g id="elem_Frontend de Pruebas"><rect fill="#F1F1F1" height="46.2969" rx="2.5" ry="2.5" style="stroke:#181818;stroke-width:0.5;" width="186" x="1378" y="113.3"/><rect fill="#F1F1F1" height="10" style="stroke:#181818;stroke-width:0.5;" width="15" x="1544" y="118.3"/><rect fill="#F1F1F1" height="2" style="stroke:#181818;stroke-width:0.5;" width="4" x="1542" y="120.3"/><rect fill="#F1F1F1" height="2" style="stroke:#181818;stroke-width:0.5;" width="4" x="1542" y="124.3"/><text fill="#000000" font-family="sans-serif" font-size="14" lengthAdjust="spacing" textLength="146" x="1393" y="146.2951">Frontend de Pruebas</text></g><!--entity Servidor de Pruebas: AWS EC2--><g id="elem_Servidor de Pruebas: AWS EC2"><rect fill="#F1F1F1" height="46.2969" rx="2.5" ry="2.5" style="stroke:#181818;stroke-width:0.5;" width="251" x="1105.5" y="219.59"/><rect fill="#F1F1F1" height="10" style="stroke:#181818;stroke-width:0.5;" width="15" x="1336.5" y="224.59"/><rect fill="#F1F1F1" height="2" style="stroke:#181818;stroke-width:0.5;" width="4" x="1334.5" y="226.59"/><rect fill="#F1F1F1" height="2" style="stroke:#181818;stroke-width:0.5;" width="4" x="1334.5" y="230.59"/><text fill="#000000" font-family="sans-serif" font-size="14" lengthAdjust="spacing" textLength="211" x="1120.5" y="252.5851">Servidor de Pruebas: AWS EC2</text></g><!--entity Entorno de Producci?n--><g id="elem_Entorno de Producci&#243;n"><rect fill="#F1F1F1" height="46.2969" rx="2.5" ry="2.5" style="stroke:#181818;stroke-width:0.5;" width="199" x="953.5" y="340.89"/><rect fill="#F1F1F1" height="10" style="stroke:#181818;stroke-width:0.5;" width="15" x="1132.5" y="345.89"/><rect fill="#F1F1F1" height="2" style="stroke:#181818;stroke-width:0.5;" width="4" x="1130.5" y="347.89"/><rect fill="#F1F1F1" height="2" style="stroke:#181818;stroke-width:0.5;" width="4" x="1130.5" y="351.89"/><text fill="#000000" font-family="sans-serif" font-size="14" lengthAdjust="spacing" textLength="159" x="968.5" y="373.8851">Entorno de Producci&#243;n</text></g><!--entity Base de Datos de Producci?n--><g id="elem_Base de Datos de Producci&#243;n"><rect fill="#F1F1F1" height="46.2969" rx="2.5" ry="2.5" style="stroke:#181818;stroke-width:0.5;" width="246" x="202" y="340.89"/><rect fill="#F1F1F1" height="10" style="stroke:#181818;stroke-width:0.5;" width="15" x="428" y="345.89"/><rect fill="#F1F1F1" height="2" style="stroke:#181818;stroke-width:0.5;" width="4" x="426" y="347.89"/><rect fill="#F1F1F1" height="2" style="stroke:#181818;stroke-width:0.5;" width="4" x="426" y="351.89"/><text fill="#000000" font-family="sans-serif" font-size="14" lengthAdjust="spacing" textLength="206" x="217" y="373.8851">Base de Datos de Producci&#243;n</text></g><!--entity Frontend de Producci?n--><g id="elem_Frontend de Producci&#243;n"><rect fill="#F1F1F1" height="46.2969" rx="2.5" ry="2.5" style="stroke:#181818;stroke-width:0.5;" width="207" x="483.5" y="340.89"/><rect fill="#F1F1F1" height="10" style="stroke:#181818;stroke-width:0.5;" width="15" x="670.5" y="345.89"/><rect fill="#F1F1F1" height="2" style="stroke:#181818;stroke-width:0.5;" width="4" x="668.5" y="347.89"/><rect fill="#F1F1F1" height="2" style="stroke:#181818;stroke-width:0.5;" width="4" x="668.5" y="351.89"/><text fill="#000000" font-family="sans-serif" font-size="14" lengthAdjust="spacing" textLength="167" x="498.5" y="373.8851">Frontend de Producci&#243;n</text></g><!--entity Balanceador de Carga--><g id="elem_Balanceador de Carga"><rect fill="#F1F1F1" height="46.2969" rx="2.5" ry="2.5" style="stroke:#181818;stroke-width:0.5;" width="192" x="726" y="340.89"/><rect fill="#F1F1F1" height="10" style="stroke:#181818;stroke-width:0.5;" width="15" x="898" y="345.89"/><rect fill="#F1F1F1" height="2" style="stroke:#181818;stroke-width:0.5;" width="4" x="896" y="347.89"/><rect fill="#F1F1F1" height="2" style="stroke:#181818;stroke-width:0.5;" width="4" x="896" y="351.89"/><text fill="#000000" font-family="sans-serif" font-size="14" lengthAdjust="spacing" textLength="152" x="741" y="373.8851">Balanceador de Carga</text></g><!--entity Servidor de Producci?n: AWS EC2--><g id="elem_Servidor de Producci&#243;n: AWS EC2"><rect fill="#F1F1F1" height="46.2969" rx="2.5" ry="2.5" style="stroke:#181818;stroke-width:0.5;" width="272" x="202" y="447.19"/><rect fill="#F1F1F1" height="10" style="stroke:#181818;stroke-width:0.5;" width="15" x="454" y="452.19"/><rect fill="#F1F1F1" height="2" style="stroke:#181818;stroke-width:0.5;" width="4" x="452" y="454.19"/><rect fill="#F1F1F1" height="2" style="stroke:#181818;stroke-width:0.5;" width="4" x="452" y="458.19"/><text fill="#000000" font-family="sans-serif" font-size="14" lengthAdjust="spacing" textLength="232" x="217" y="480.1851">Servidor de Producci&#243;n: AWS EC2</text></g><!--entity CDN: Cloudflare--><g id="elem_CDN: Cloudflare"><rect fill="#F1F1F1" height="46.2969" rx="2.5" ry="2.5" style="stroke:#181818;stroke-width:0.5;" width="149" x="508.5" y="447.19"/><rect fill="#F1F1F1" height="10" style="stroke:#181818;stroke-width:0.5;" width="15" x="637.5" y="452.19"/><rect fill="#F1F1F1" height="2" style="stroke:#181818;stroke-width:0.5;" width="4" x="635.5" y="454.19"/><rect fill="#F1F1F1" height="2" style="stroke:#181818;stroke-width:0.5;" width="4" x="635.5" y="458.19"/><text fill="#000000" font-family="sans-serif" font-size="14" lengthAdjust="spacing" textLength="109" x="523.5" y="480.1851">CDN: Cloudflare</text></g><!--entity Cach?: Redis--><g id="elem_Cach&#233;: Redis"><rect fill="#F1F1F1" height="46.2969" rx="2.5" ry="2.5" style="stroke:#181818;stroke-width:0.5;" width="132" x="692" y="447.19"/><rect fill="#F1F1F1" height="10" style="stroke:#181818;stroke-width:0.5;" width="15" x="804" y="452.19"/><rect fill="#F1F1F1" height="2" style="stroke:#181818;stroke-width:0.5;" width="4" x="802" y="454.19"/><rect fill="#F1F1F1" height="2" style="stroke:#181818;stroke-width:0.5;" width="4" x="802" y="458.19"/><text fill="#000000" font-family="sans-serif" font-size="14" lengthAdjust="spacing" textLength="92" x="707" y="480.1851">Cach&#233;: Redis</text></g><!--entity Monitoreo: Grafana--><g id="elem_Monitoreo: Grafana"><rect fill="#F1F1F1" height="46.2969" rx="2.5" ry="2.5" style="stroke:#181818;stroke-width:0.5;" width="172" x="252" y="553.48"/><rect fill="#F1F1F1" height="10" style="stroke:#181818;stroke-width:0.5;" width="15" x="404" y="558.48"/><rect fill="#F1F1F1" height="2" style="stroke:#181818;stroke-width:0.5;" width="4" x="402" y="560.48"/><rect fill="#F1F1F1" height="2" style="stroke:#181818;stroke-width:0.5;" width="4" x="402" y="564.48"/><text fill="#000000" font-family="sans-serif" font-size="14" lengthAdjust="spacing" textLength="132" x="267" y="586.4751">Monitoreo: Grafana</text></g><!--entity Logging: ELK Stack--><g id="elem_Logging: ELK Stack"><rect fill="#F1F1F1" height="46.2969" rx="2.5" ry="2.5" style="stroke:#181818;stroke-width:0.5;" width="171" x="459.5" y="553.48"/><rect fill="#F1F1F1" height="10" style="stroke:#181818;stroke-width:0.5;" width="15" x="610.5" y="558.48"/><rect fill="#F1F1F1" height="2" style="stroke:#181818;stroke-width:0.5;" width="4" x="608.5" y="560.48"/><rect fill="#F1F1F1" height="2" style="stroke:#181818;stroke-width:0.5;" width="4" x="608.5" y="564.48"/><text fill="#000000" font-family="sans-serif" font-size="14" lengthAdjust="spacing" textLength="131" x="474.5" y="586.4751">Logging: ELK Stack</text></g><!--entity CI/CD Pipeline: GitHub Actions--><g id="elem_CI/CD Pipeline: GitHub Actions"><rect fill="#F1F1F1" height="46.2969" rx="2.5" ry="2.5" style="stroke:#181818;stroke-width:0.5;" width="248" x="1182" y="7"/><rect fill="#F1F1F1" height="10" style="stroke:#181818;stroke-width:0.5;" width="15" x="1410" y="12"/><rect fill="#F1F1F1" height="2" style="stroke:#181818;stroke-width:0.5;" width="4" x="1408" y="14"/><rect fill="#F1F1F1" height="2" style="stroke:#181818;stroke-width:0.5;" width="4" x="1408" y="18"/><text fill="#000000" font-family="sans-serif" font-size="14" lengthAdjust="spacing" textLength="208" x="1197" y="39.9951">CI/CD Pipeline: GitHub Actions</text></g><!--entity Red Privada--><g id="elem_Red Privada"><rect fill="#F1F1F1" height="46.2969" rx="2.5" ry="2.5" style="stroke:#181818;stroke-width:0.5;" width="121" x="29.5" y="7"/><rect fill="#F1F1F1" height="10" style="stroke:#181818;stroke-width:0.5;" width="15" x="130.5" y="12"/><rect fill="#F1F1F1" height="2" style="stroke:#181818;stroke-width:0.5;" width="4" x="128.5" y="14"/><rect fill="#F1F1F1" height="2" style="stroke:#181818;stroke-width:0.5;" width="4" x="128.5" y="18"/><text fill="#000000" font-family="sans-serif" font-size="14" lengthAdjust="spacing" textLength="81" x="44.5" y="39.9951">Red Privada</text></g><!--entity Firewall--><g id="elem_Firewall"><rect fill="#F1F1F1" height="46.2969" rx="2.5" ry="2.5" style="stroke:#181818;stroke-width:0.5;" width="90" x="186" y="7"/><rect fill="#F1F1F1" height="10" style="stroke:#181818;stroke-width:0.5;" width="15" x="256" y="12"/><rect fill="#F1F1F1" height="2" style="stroke:#181818;stroke-width:0.5;" width="4" x="254" y="14"/><rect fill="#F1F1F1" height="2" style="stroke:#181818;stroke-width:0.5;" width="4" x="254" y="18"/><text fill="#000000" font-family="sans-serif" font-size="14" lengthAdjust="spacing" textLength="50" x="201" y="39.9951">Firewall</text></g><!--entity Servicios Externos--><g id="elem_Servicios Externos"><rect fill="#F1F1F1" height="46.2969" rx="2.5" ry="2.5" style="stroke:#181818;stroke-width:0.5;" width="166" x="7" y="113.3"/><rect fill="#F1F1F1" height="10" style="stroke:#181818;stroke-width:0.5;" width="15" x="153" y="118.3"/><rect fill="#F1F1F1" height="2" style="stroke:#181818;stroke-width:0.5;" width="4" x="151" y="120.3"/><rect fill="#F1F1F1" height="2" style="stroke:#181818;stroke-width:0.5;" width="4" x="151" y="124.3"/><text fill="#000000" font-family="sans-serif" font-size="14" lengthAdjust="spacing" textLength="126" x="22" y="146.2951">Servicios Externos</text></g><!--link CI/CD Pipeline: GitHub Actions to Entorno de Pruebas--><g id="link_CI/CD Pipeline: GitHub Actions_Entorno de Pruebas"><path d="M1181.74,47.4 C1154.61,52.99 1126.42,60.44 1101,70.3 C1075.75,80.09 1049.81,95.91 1029.91,109.52 " fill="none" id="CI/CD Pipeline: GitHub Actions-to-Entorno de Pruebas" style="stroke:#181818;stroke-width:1.0;"/><polygon fill="#181818" points="1025.98,112.92,1035.6582,111.0946,1030.0935,110.0777,1031.1105,104.513,1025.98,112.92" style="stroke:#181818;stroke-width:1.0;"/></g><!--link CI/CD Pipeline: GitHub Actions to Entorno de Producci?n--><g id="link_CI/CD Pipeline: GitHub Actions_Entorno de Producci&#243;n"><path d="M1430.49,33.46 C1493.21,37.55 1560.13,47.38 1580,70.3 C1643.95,144.03 1644.09,216.29 1580,289.89 C1552.75,321.18 1304.11,344.58 1158.3,355.76 " fill="none" id="CI/CD Pipeline: GitHub Actions-to-Entorno de Producci&#243;n" style="stroke:#181818;stroke-width:1.0;"/><polygon fill="#181818" points="1153.73,356.18,1163.0117,359.4739,1158.7151,355.7943,1162.3947,351.4977,1153.73,356.18" style="stroke:#181818;stroke-width:1.0;"/></g><!--SRC=[dP8zJiD048LxdsAKFaAYT84K72SW0egIWY9ACTcTc16h7Mkz3aY80r5pX5oCzG_11gUXVM-UvfktcwDwnenWDAK2dHDZP0Hl4S0cjLwS5T04FzwsSbQKIy71PO4v-rgxneBgKVHI36HcJgmdgmUiDRa3Qt5zAuR9unhIv78RlKTH_esvT2NjiFZBs1h3C5spIzBLknYjVfP1TAaK7p_j4CV9FCVI7-Zp_0uRj8gmnKhGPJW0UmfrWCDGCds88J5Iwhr1Hus6wkdu4SEAD3Tttukjtf92utE7UxJDXeLa6TiiXdHn1siVRgzBs2It5yaKbfoJOKjnzG5koXrCb6UnnHR6uwlXT_b7ibD657wT3X8VK0V0pOmTlQ0nbLENeJZKcxvw2kcmxGi0]--></g></svg>