<?xml version="1.0" encoding="us-ascii" standalone="no"?><svg xmlns="http://www.w3.org/2000/svg" xmlns:xlink="http://www.w3.org/1999/xlink" contentStyleType="text/css" height="540px" preserveAspectRatio="none" style="width:450px;height:540px;background:#FFFFFF;" version="1.1" viewBox="0 0 450 540" width="450px" zoomAndPan="magnify"><defs/><g><!--class user--><g id="elem_user"><rect codeLine="2" fill="#F1F1F1" height="113.1875" id="user" rx="2.5" ry="2.5" style="stroke:#181818;stroke-width:0.5;" width="141" x="133.96" y="7"/><ellipse cx="184.21" cy="23" fill="#ADD1B2" rx="11" ry="11" style="stroke:#181818;stroke-width:1.0;"/><path d="M188.3194,29 L180.6006,29 L180.6006,16.6094 L188.3194,16.6094 L188.3194,18.7656 L183.0538,18.7656 L183.0538,21.4375 L187.8194,21.4375 L187.8194,23.5938 L183.0538,23.5938 L183.0538,26.8438 L188.3194,26.8438 L188.3194,29 Z " fill="#000000"/><text fill="#000000" font-family="sans-serif" font-size="14" lengthAdjust="spacing" textLength="32" x="204.71" y="27.8467">User</text><line style="stroke:#181818;stroke-width:0.5;" x1="134.96" x2="273.96" y1="39" y2="39"/><ellipse cx="144.96" cy="52.6484" fill="none" rx="3" ry="3" style="stroke:#038048;stroke-width:1.0;"/><text fill="#000000" font-family="sans-serif" font-size="14" lengthAdjust="spacing" textLength="38" x="153.96" y="55.9951">id: int</text><text fill="#000000" font-family="sans-serif" font-size="14" lengthAdjust="spacing" textLength="87" x="153.96" y="72.292">name: string</text><text fill="#000000" font-family="sans-serif" font-size="14" lengthAdjust="spacing" textLength="84" x="153.96" y="88.5889">email: string</text><text fill="#000000" font-family="sans-serif" font-size="14" lengthAdjust="spacing" textLength="115" x="153.96" y="104.8857">password: string</text><line style="stroke:#181818;stroke-width:0.5;" x1="134.96" x2="273.96" y1="112.1875" y2="112.1875"/></g><!--class book--><g id="elem_book"><rect codeLine="9" fill="#F1F1F1" height="129.4844" id="book" rx="2.5" ry="2.5" style="stroke:#181818;stroke-width:0.5;" width="172" x="197.46" y="197.19"/><ellipse cx="261.21" cy="213.19" fill="#ADD1B2" rx="11" ry="11" style="stroke:#181818;stroke-width:1.0;"/><path d="M265.3194,219.19 L257.6006,219.19 L257.6006,206.7994 L265.3194,206.7994 L265.3194,208.9556 L260.0538,208.9556 L260.0538,211.6275 L264.8194,211.6275 L264.8194,213.7837 L260.0538,213.7837 L260.0538,217.0337 L265.3194,217.0337 L265.3194,219.19 Z " fill="#000000"/><text fill="#000000" font-family="sans-serif" font-size="14" lengthAdjust="spacing" textLength="36" x="281.71" y="218.0367">Book</text><line style="stroke:#181818;stroke-width:0.5;" x1="198.46" x2="368.46" y1="229.19" y2="229.19"/><ellipse cx="208.46" cy="242.8384" fill="none" rx="3" ry="3" style="stroke:#038048;stroke-width:1.0;"/><text fill="#000000" font-family="sans-serif" font-size="14" lengthAdjust="spacing" textLength="38" x="217.46" y="246.1851">id: int</text><text fill="#000000" font-family="sans-serif" font-size="14" lengthAdjust="spacing" textLength="76" x="217.46" y="262.482">user_id: int</text><text fill="#000000" font-family="sans-serif" font-size="14" lengthAdjust="spacing" textLength="73" x="217.46" y="278.7789">title: string</text><text fill="#000000" font-family="sans-serif" font-size="14" lengthAdjust="spacing" textLength="93" x="217.46" y="295.0757">author: string</text><text fill="#000000" font-family="sans-serif" font-size="14" lengthAdjust="spacing" textLength="146" x="217.46" y="311.3726">published_date: date</text><line style="stroke:#181818;stroke-width:0.5;" x1="198.46" x2="368.46" y1="318.6744" y2="318.6744"/></g><!--class exchange--><g id="elem_exchange"><rect codeLine="17" fill="#F1F1F1" height="129.4844" id="exchange" rx="2.5" ry="2.5" style="stroke:#181818;stroke-width:0.5;" width="172" x="40.46" y="403.68"/><ellipse cx="88.21" cy="419.68" fill="#ADD1B2" rx="11" ry="11" style="stroke:#181818;stroke-width:1.0;"/><path d="M92.3194,425.68 L84.6006,425.68 L84.6006,413.2894 L92.3194,413.2894 L92.3194,415.4456 L87.0538,415.4456 L87.0538,418.1175 L91.8194,418.1175 L91.8194,420.2737 L87.0538,420.2737 L87.0538,423.5237 L92.3194,423.5237 L92.3194,425.68 Z " fill="#000000"/><text fill="#000000" font-family="sans-serif" font-size="14" lengthAdjust="spacing" textLength="68" x="108.71" y="424.5267">Exchange</text><line style="stroke:#181818;stroke-width:0.5;" x1="41.46" x2="211.46" y1="435.68" y2="435.68"/><ellipse cx="51.46" cy="449.3284" fill="none" rx="3" ry="3" style="stroke:#038048;stroke-width:1.0;"/><text fill="#000000" font-family="sans-serif" font-size="14" lengthAdjust="spacing" textLength="38" x="60.46" y="452.6751">id: int</text><text fill="#000000" font-family="sans-serif" font-size="14" lengthAdjust="spacing" textLength="107" x="60.46" y="468.972">borrower_id: int</text><text fill="#000000" font-family="sans-serif" font-size="14" lengthAdjust="spacing" textLength="89" x="60.46" y="485.2689">lender_id: int</text><text fill="#000000" font-family="sans-serif" font-size="14" lengthAdjust="spacing" textLength="80" x="60.46" y="501.5657">book_id: int</text><text fill="#000000" font-family="sans-serif" font-size="14" lengthAdjust="spacing" textLength="146" x="60.46" y="517.8626">exchange_date: date</text><line style="stroke:#181818;stroke-width:0.5;" x1="41.46" x2="211.46" y1="525.1644" y2="525.1644"/></g><!--class review--><g id="elem_review"><rect codeLine="25" fill="#F1F1F1" height="129.4844" id="review" rx="2.5" ry="2.5" style="stroke:#181818;stroke-width:0.5;" width="140" x="267.46" y="403.68"/><ellipse cx="309.01" cy="419.68" fill="#ADD1B2" rx="11" ry="11" style="stroke:#181818;stroke-width:1.0;"/><path d="M313.1194,425.68 L305.4006,425.68 L305.4006,413.2894 L313.1194,413.2894 L313.1194,415.4456 L307.8538,415.4456 L307.8538,418.1175 L312.6194,418.1175 L312.6194,420.2737 L307.8538,420.2737 L307.8538,423.5237 L313.1194,423.5237 L313.1194,425.68 Z " fill="#000000"/><text fill="#000000" font-family="sans-serif" font-size="14" lengthAdjust="spacing" textLength="49" x="328.91" y="424.5267">Review</text><line style="stroke:#181818;stroke-width:0.5;" x1="268.46" x2="406.46" y1="435.68" y2="435.68"/><ellipse cx="278.46" cy="449.3284" fill="none" rx="3" ry="3" style="stroke:#038048;stroke-width:1.0;"/><text fill="#000000" font-family="sans-serif" font-size="14" lengthAdjust="spacing" textLength="38" x="287.46" y="452.6751">id: int</text><text fill="#000000" font-family="sans-serif" font-size="14" lengthAdjust="spacing" textLength="76" x="287.46" y="468.972">user_id: int</text><text fill="#000000" font-family="sans-serif" font-size="14" lengthAdjust="spacing" textLength="80" x="287.46" y="485.2689">book_id: int</text><text fill="#000000" font-family="sans-serif" font-size="14" lengthAdjust="spacing" textLength="65" x="287.46" y="501.5657">rating: int</text><text fill="#000000" font-family="sans-serif" font-size="14" lengthAdjust="spacing" textLength="114" x="287.46" y="517.8626">comment: string</text><line style="stroke:#181818;stroke-width:0.5;" x1="268.46" x2="406.46" y1="525.1644" y2="525.1644"/></g><!--link user to book--><g id="link_user_book"><path codeLine="33" d="M230.31,128.83 C238,147.94 246.48,169.01 254.36,188.6 " fill="none" id="user-book" style="stroke:#181818;stroke-width:1.0;"/><line style="stroke:#181818;stroke-width:1.0;" x1="224.7803" x2="232.2032" y1="126.8032" y2="123.8197"/><line style="stroke:#181818;stroke-width:1.0;" x1="225.8991" x2="233.3219" y1="129.5867" y2="126.6033"/><line style="stroke:#181818;stroke-width:1.0;" x1="229.9834" x2="227" y1="129.0229" y2="121.6"/><line style="stroke:#181818;stroke-width:1.0;" x1="254.7166" x2="263.2672" y1="188.4771" y2="193.6624"/><line style="stroke:#181818;stroke-width:1.0;" x1="254.7166" x2="252.1328" y1="188.4771" y2="198.1376"/><line style="stroke:#181818;stroke-width:1.0;" x1="254.7166" x2="257.7" y1="188.4771" y2="195.9"/><ellipse cx="252.479" cy="182.91" fill="none" rx="4" ry="4" style="stroke:#181818;stroke-width:1.0;"/><text fill="#000000" font-family="sans-serif" font-size="13" lengthAdjust="spacing" textLength="32" x="245.46" y="163.2569">owns</text></g><!--link user to exchange--><g id="link_user_exchange"><path codeLine="34" d="M126.01,103.16 C90.2,125.3 51.4,156.8 31.46,197.19 C6,248.8 14.63,271.64 31.46,326.68 C38.91,351.01 52.13,374.94 66.39,395.96 " fill="none" id="user-exchange" style="stroke:#181818;stroke-width:1.0;"/><line style="stroke:#181818;stroke-width:1.0;" x1="127.1087" x2="131.2415" y1="97.2215" y2="104.0713"/><line style="stroke:#181818;stroke-width:1.0;" x1="124.54" x2="128.6728" y1="98.7713" y2="105.6211"/><line style="stroke:#181818;stroke-width:1.0;" x1="125.7502" x2="132.6" y1="102.7128" y2="98.58"/><line style="stroke:#181818;stroke-width:1.0;" x1="66.9111" x2="76.4005" y1="395.6961" y2="398.8508"/><line style="stroke:#181818;stroke-width:1.0;" x1="66.9111" x2="66.5395" y1="395.6961" y2="405.6892"/><line style="stroke:#181818;stroke-width:1.0;" x1="66.9111" x2="71.47" y1="395.6961" y2="402.27"/><ellipse cx="63.492" cy="390.7656" fill="none" rx="4" ry="4" style="stroke:#181818;stroke-width:1.0;"/><text fill="#000000" font-family="sans-serif" font-size="13" lengthAdjust="spacing" textLength="50" x="32.46" y="266.4969">borrows</text></g><!--link user to exchange--><g id="link_user_exchange"><path codeLine="35" d="M169.23,128.65 C159.15,149.86 149.31,173.99 143.46,197.19 C127,262.5 123.64,339.34 123.87,394.36 " fill="none" id="user-exchange-1" style="stroke:#181818;stroke-width:1.0;"/><line style="stroke:#181818;stroke-width:1.0;" x1="167.7567" x2="174.9573" y1="123.5273" y2="127.0133"/><line style="stroke:#181818;stroke-width:1.0;" x1="166.4495" x2="173.65" y1="126.2275" y2="129.7135"/><line style="stroke:#181818;stroke-width:1.0;" x1="169.614" x2="173.1" y1="128.8706" y2="121.67"/><line style="stroke:#181818;stroke-width:1.0;" x1="123.8829" x2="129.9398" y1="394.3402" y2="402.2971"/><line style="stroke:#181818;stroke-width:1.0;" x1="123.8829" x2="117.9402" y1="394.3402" y2="402.3829"/><line style="stroke:#181818;stroke-width:1.0;" x1="123.8829" x2="123.94" y1="394.3402" y2="402.34"/><ellipse cx="123.84" cy="388.3404" fill="none" rx="4" ry="4" style="stroke:#181818;stroke-width:1.0;"/><text fill="#000000" font-family="sans-serif" font-size="13" lengthAdjust="spacing" textLength="34" x="144.46" y="266.4969">lends</text></g><!--link user to review--><g id="link_user_review"><path codeLine="36" d="M282.85,99.57 C321.9,121.53 365.39,153.95 387.46,197.19 C419.14,259.26 398.39,338.48 374.73,395.06 " fill="none" id="user-review" style="stroke:#181818;stroke-width:1.0;"/><line style="stroke:#181818;stroke-width:1.0;" x1="277.6829" x2="281.5438" y1="100.7538" y2="93.7471"/><line style="stroke:#181818;stroke-width:1.0;" x1="280.3104" x2="284.1713" y1="102.2016" y2="95.1949"/><line style="stroke:#181818;stroke-width:1.0;" x1="283.1167" x2="276.11" y1="99.1808" y2="95.32"/><line style="stroke:#181818;stroke-width:1.0;" x1="374.3748" x2="376.7338" y1="394.8883" y2="404.6061"/><line style="stroke:#181818;stroke-width:1.0;" x1="374.3748" x2="365.7062" y1="394.8883" y2="399.8739"/><line style="stroke:#181818;stroke-width:1.0;" x1="374.3748" x2="371.22" y1="394.8883" y2="402.24"/><ellipse cx="376.7409" cy="389.3746" fill="none" rx="4" ry="4" style="stroke:#181818;stroke-width:1.0;"/><text fill="#000000" font-family="sans-serif" font-size="13" lengthAdjust="spacing" textLength="37" x="405.46" y="266.4969">writes</text></g><!--link book to exchange--><g id="link_book_exchange"><path codeLine="37" d="M228.89,334.01 C213.37,354.22 196.47,376.23 180.96,396.44 " fill="none" id="book-exchange" style="stroke:#181818;stroke-width:1.0;"/><line style="stroke:#181818;stroke-width:1.0;" x1="228.6112" x2="234.9559" y1="328.8059" y2="333.6788"/><line style="stroke:#181818;stroke-width:1.0;" x1="226.7839" x2="233.1286" y1="331.1852" y2="336.058"/><line style="stroke:#181818;stroke-width:1.0;" x1="229.3471" x2="234.22" y1="334.4147" y2="328.07"/><line style="stroke:#181818;stroke-width:1.0;" x1="180.396" x2="180.2925" y1="396.16" y2="406.1595"/><line style="stroke:#181818;stroke-width:1.0;" x1="180.396" x2="170.7675" y1="396.16" y2="398.8605"/><line style="stroke:#181818;stroke-width:1.0;" x1="180.396" x2="175.53" y1="396.16" y2="402.51"/><ellipse cx="184.0454" cy="391.3975" fill="none" rx="4" ry="4" style="stroke:#181818;stroke-width:1.0;"/><text fill="#000000" font-family="sans-serif" font-size="13" lengthAdjust="spacing" textLength="70" x="211.46" y="369.7469">exchanged</text></g><!--link book to review--><g id="link_book_review"><path codeLine="38" d="M302.7,335.77 C307.76,354.95 313.23,375.64 318.29,394.82 " fill="none" id="book-review" style="stroke:#181818;stroke-width:1.0;"/><line style="stroke:#181818;stroke-width:1.0;" x1="297.555" x2="305.2894" y1="332.9594" y2="330.915"/><line style="stroke:#181818;stroke-width:1.0;" x1="298.3217" x2="306.056" y1="335.8598" y2="333.8154"/><line style="stroke:#181818;stroke-width:1.0;" x1="302.4444" x2="300.4" y1="335.8044" y2="328.07"/><line style="stroke:#181818;stroke-width:1.0;" x1="318.5456" x2="326.3908" y1="394.7756" y2="400.9767"/><line style="stroke:#181818;stroke-width:1.0;" x1="318.5456" x2="314.7892" y1="394.7756" y2="404.0433"/><line style="stroke:#181818;stroke-width:1.0;" x1="318.5456" x2="320.59" y1="394.7756" y2="402.51"/><ellipse cx="317.0123" cy="388.9749" fill="none" rx="4" ry="4" style="stroke:#181818;stroke-width:1.0;"/><text fill="#000000" font-family="sans-serif" font-size="13" lengthAdjust="spacing" textLength="56" x="313.46" y="369.7469">reviewed</text></g><!--SRC=[XP51ZeCm34NtdCBgjk82MOxK2rIQDGgDLQA1UEI4IQjsxZuc1PfGLRD1_zlnVt505soumkxJ8-z0UnX5mAq2s5kZmBeWqka15VZ0rft5ug1jd_blxNqaDclfjwfmplqW-agvhOXjxiHgdbOc-foZnz0Hvw2nxQtlq3H61pavVNFOuNBgj3jZ0k9ijj2Mc2aMu1wTAGhJPJExHBt17l77OanGJlAVFJVfh8EijxWJ3OC4vs-PVidzNjTqUpoZ0ehE5_LrMpKl-BOzBLisvqihY6m3-YenNWSNQOe3w_13IFSF]--></g></svg>