<?xml version="1.0" encoding="us-ascii" standalone="no"?><svg xmlns="http://www.w3.org/2000/svg" xmlns:xlink="http://www.w3.org/1999/xlink" contentStyleType="text/css" height="684px" preserveAspectRatio="none" style="width:565px;height:684px;background:#FFFFFF;" version="1.1" viewBox="0 0 565 684" width="565px" zoomAndPan="magnify"><defs/><g><ellipse cx="279.6" cy="16" fill="#181818" rx="10" ry="10" style="stroke:none;stroke-width:1.0;"/><g id="NoRegistrado"><rect fill="#F1F1F1" height="50" rx="12.5" ry="12.5" style="stroke:#181818;stroke-width:0.5;" width="114" x="222.61" y="87"/><line style="stroke:#181818;stroke-width:0.5;" x1="222.61" x2="336.61" y1="113.2969" y2="113.2969"/><text fill="#000000" font-family="sans-serif" font-size="14" lengthAdjust="spacing" textLength="94" x="232.61" y="104.9951">NoRegistrado</text></g><path d="M19.5,214 L539.71,214 A12.5,12.5 0 0 1 552.21,226.5 L552.21,240.2969 L7,240.2969 L7,226.5 A12.5,12.5 0 0 1 19.5,214 " fill="#F1F1F1" style="stroke:#F1F1F1;stroke-width:1.0;"/><rect fill="none" height="464.5938" rx="12.5" ry="12.5" style="stroke:#181818;stroke-width:0.5;" width="545.21" x="7" y="214"/><line style="stroke:#181818;stroke-width:0.5;" x1="7" x2="552.21" y1="240.2969" y2="240.2969"/><text fill="#000000" font-family="sans-serif" font-size="14" lengthAdjust="spacing" textLength="75" x="242.105" y="231.9951">Registrado</text><ellipse cx="202.61" cy="261.2969" fill="#181818" rx="10" ry="10" style="stroke:none;stroke-width:1.0;"/><g id="Registrado.SinLibros"><rect fill="#F1F1F1" height="50" rx="12.5" ry="12.5" style="stroke:#181818;stroke-width:0.5;" width="82" x="161.61" y="308.2969"/><line style="stroke:#181818;stroke-width:0.5;" x1="161.61" x2="243.61" y1="334.5938" y2="334.5938"/><text fill="#000000" font-family="sans-serif" font-size="14" lengthAdjust="spacing" textLength="62" x="171.61" y="326.292">SinLibros</text></g><path d="M31.5,411.2969 L373.71,411.2969 A12.5,12.5 0 0 1 386.21,423.7969 L386.21,437.5938 L19,437.5938 L19,423.7969 A12.5,12.5 0 0 1 31.5,411.2969 " fill="#F1F1F1" style="stroke:#F1F1F1;stroke-width:1.0;"/><rect fill="none" height="257.2969" rx="12.5" ry="12.5" style="stroke:#181818;stroke-width:0.5;" width="367.21" x="19" y="411.2969"/><line style="stroke:#181818;stroke-width:0.5;" x1="19" x2="386.21" y1="437.5938" y2="437.5938"/><text fill="#000000" font-family="sans-serif" font-size="14" lengthAdjust="spacing" textLength="69" x="168.105" y="429.292">ConLibros</text><ellipse cx="114.21" cy="458.5938" fill="#181818" rx="10" ry="10" style="stroke:none;stroke-width:1.0;"/><g id="Registrado.ConLibros.SinIntercambios"><rect fill="#F1F1F1" height="50" rx="12.5" ry="12.5" style="stroke:#181818;stroke-width:0.5;" width="130" x="49.21" y="505.5938"/><line style="stroke:#181818;stroke-width:0.5;" x1="49.21" x2="179.21" y1="531.8906" y2="531.8906"/><text fill="#000000" font-family="sans-serif" font-size="14" lengthAdjust="spacing" textLength="110" x="59.21" y="523.5889">SinIntercambios</text></g><g id="Registrado.ConLibros.ConIntercambios"><rect fill="#F1F1F1" height="50" rx="12.5" ry="12.5" style="stroke:#181818;stroke-width:0.5;" width="137" x="45.71" y="608.5938"/><line style="stroke:#181818;stroke-width:0.5;" x1="45.71" x2="182.71" y1="634.8906" y2="634.8906"/><text fill="#000000" font-family="sans-serif" font-size="14" lengthAdjust="spacing" textLength="117" x="55.71" y="626.5889">ConIntercambios</text></g><!--link *start*ConLibros to SinIntercambios--><g id="link_*start*ConLibros_SinIntercambios"><path d="M114.21,469.0338 C114.21,476.8438 114.21,488.3838 114.21,499.3038 " fill="none" id="*start*ConLibros-to-SinIntercambios" style="stroke:#181818;stroke-width:1.0;"/><polygon fill="#181818" points="114.21,504.2738,118.21,495.2738,114.21,499.2738,110.21,495.2738,114.21,504.2738" style="stroke:#181818;stroke-width:1.0;"/></g><!--link SinIntercambios to ConIntercambios--><g id="link_SinIntercambios_ConIntercambios"><path d="M53.52,555.8438 C47.05,560.7838 41.33,566.6538 37.21,573.5938 C30,585.7438 35.78,596.2638 46.81,604.9138 " fill="none" id="SinIntercambios-to-ConIntercambios" style="stroke:#181818;stroke-width:1.0;"/><polygon fill="#181818" points="50.46,608.2638,45.5037,599.7529,46.4059,605.3373,40.8214,606.2395,50.46,608.2638" style="stroke:#181818;stroke-width:1.0;"/><text fill="#000000" font-family="sans-serif" font-size="13" lengthAdjust="spacing" textLength="131" x="38.21" y="586.6606">Solicitar Intercambio</text></g><!--link ConIntercambios to SinIntercambios--><g id="link_ConIntercambios_SinIntercambios"><path d="M157.62,608.2138 C169.07,598.4638 176.65,586.4738 170.21,573.5938 C167.73,568.6238 164.34,564.0838 160.46,559.9838 " fill="none" id="ConIntercambios-to-SinIntercambios" style="stroke:#181818;stroke-width:1.0;"/><polygon fill="#181818" points="157.42,557.0338,161.0482,566.19,160.9911,560.5334,166.6476,560.4763,157.42,557.0338" style="stroke:#181818;stroke-width:1.0;"/><text fill="#000000" font-family="sans-serif" font-size="13" lengthAdjust="spacing" textLength="203" x="173.21" y="586.6606">Finalizar Todos los Intercambios</text></g><!--link ConIntercambios to ConIntercambios--><g id="link_ConIntercambios_ConIntercambios"><path d="M183.09,624.7838 C193.59,626.1338 200.71,629.0638 200.71,633.5938 C200.71,637.2738 196.01,639.8938 188.61,641.4738 " fill="none" id="ConIntercambios-to-ConIntercambios" style="stroke:#181818;stroke-width:1.0;"/><polygon fill="#181818" points="184.09,642.4038,193.6274,644.8608,189.0212,641.5771,192.3049,636.9709,184.09,642.4038" style="stroke:#181818;stroke-width:1.0;"/><text fill="#000000" font-family="sans-serif" font-size="13" lengthAdjust="spacing" textLength="132" x="206.71" y="638.1606">Finalizar Intercambio</text></g><!--link *start*Registrado to SinLibros--><g id="link_*start*Registrado_SinLibros"><path d="M202.61,271.7369 C202.61,279.5469 202.61,291.0869 202.61,302.0069 " fill="none" id="*start*Registrado-to-SinLibros" style="stroke:#181818;stroke-width:1.0;"/><polygon fill="#181818" points="202.61,306.9869,206.61,297.9869,202.61,301.9869,198.61,297.9869,202.61,306.9869" style="stroke:#181818;stroke-width:1.0;"/></g><!--link SinLibros to ConLibros--><g id="link_SinLibros_ConLibros"><path d="M162.15,358.7069 C156.68,363.8069 151.84,369.6869 148.61,376.2969 C144.07,385.5769 141.76,395.3169 141.14,405.2369 " fill="none" id="SinLibros-to-ConLibros" style="stroke:#181818;stroke-width:1.0;"/><polygon fill="#181818" points="140.98,410.0969,145.2354,401.2148,141.1228,405.0989,137.2387,400.9863,140.98,410.0969" style="stroke:#181818;stroke-width:1.0;"/><text fill="#000000" font-family="sans-serif" font-size="13" lengthAdjust="spacing" textLength="86" x="149.61" y="389.3638">Agregar Libro</text></g><!--link ConLibros to SinLibros--><g id="link_ConLibros_SinLibros"><path d="M242.62,411.0769 C242.36,399.1969 240.55,387.4469 236.61,376.2969 C235.06,371.9469 232.86,367.7169 230.3,363.7169 " fill="none" id="ConLibros-to-SinLibros" style="stroke:#181818;stroke-width:1.0;"/><polygon fill="#181818" points="226.9,359.7969,228.7026,369.4794,229.7326,363.9171,235.2949,364.9471,226.9,359.7969" style="stroke:#181818;stroke-width:1.0;"/><text fill="#000000" font-family="sans-serif" font-size="13" lengthAdjust="spacing" textLength="157" x="240.61" y="389.3638">Eliminar Todos los Libros</text></g><!--link ConLibros to ConLibros--><g id="link_ConLibros_ConLibros"><path d="M386.45,519.8069 C397.55,524.5969 404.21,531.3169 404.21,539.9469 C404.21,547.0969 399.64,552.9369 391.77,557.4469 " fill="none" id="ConLibros-to-ConLibros" style="stroke:#181818;stroke-width:1.0;"/><polygon fill="#181818" points="387.45,560.0869,397.2909,559.6899,391.9335,557.8737,393.7497,552.5163,387.45,560.0869" style="stroke:#181818;stroke-width:1.0;"/><text fill="#000000" font-family="sans-serif" font-size="13" lengthAdjust="spacing" textLength="127" x="410.21" y="544.5138">Editar/Eliminar Libro</text></g><!--link *start* to NoRegistrado--><g id="link_*start*_NoRegistrado"><path d="M279.6,26.35 C279.6,38.98 279.6,62.06 279.6,80.94 " fill="none" id="*start*-to-NoRegistrado" style="stroke:#181818;stroke-width:1.0;"/><polygon fill="#181818" points="279.6,85.64,283.6,76.64,279.6,80.64,275.6,76.64,279.6,85.64" style="stroke:#181818;stroke-width:1.0;"/></g><!--link NoRegistrado to Registrado--><g id="link_NoRegistrado_Registrado"><path d="M242.8,137.41 C233.48,145.6 224.68,155.6 219.6,167 C213.75,180.15 210,193.91 207.96,207.98 " fill="none" id="NoRegistrado-to-Registrado" style="stroke:#181818;stroke-width:1.0;"/><polygon fill="#181818" points="207.23,212.59,212.3542,204.1792,207.873,207.6315,204.4207,203.1503,207.23,212.59" style="stroke:#181818;stroke-width:1.0;"/><text fill="#000000" font-family="sans-serif" font-size="13" lengthAdjust="spacing" textLength="72" x="220.6" y="180.0669">Registrarse</text></g><!--link Registrado to NoRegistrado--><g id="link_Registrado_NoRegistrado"><path d="M296.4,213.81 C296.86,203.74 297.27,193.77 297.6,184 C297.86,176.45 298.82,174.45 297.6,167 C296.29,158.91 293.94,150.4 291.37,142.59 " fill="none" id="Registrado-to-NoRegistrado" style="stroke:#181818;stroke-width:1.0;"/><polygon fill="#181818" points="289.56,138.31,288.7088,148.122,291.1882,143.0375,296.2727,145.5169,289.56,138.31" style="stroke:#181818;stroke-width:1.0;"/><text fill="#000000" font-family="sans-serif" font-size="13" lengthAdjust="spacing" textLength="87" x="298.6" y="180.0669">Cerrar Sesi&#243;n</text></g><!--SRC=[RKyz2eCm5DvpYZSNf7k6GX4BXTAXTfCEKOCyi0QIJ2sUgaVenVgCDIRg8FY-_nIx1oJ90Qxg9XiqLejQCHPUZWvExWzj95le8YE7L6gIGIuDVZyTOyOAAyEmDmCe_XDox2vOQcK8y_-EITLqSJWsMZQKwG1IpboKGSginITs9Bshce2MFfyVkyByh4OhzDwRnnwoZDjdwJ0z6d_khDILU9ReAc29JLKHnY5NBLP39mI4yo-r6ptaFz7C5b_HErTJjgBMK-QeU4hFUlO3]--></g></svg>