<?xml version="1.0" encoding="us-ascii" standalone="no"?><svg xmlns="http://www.w3.org/2000/svg" xmlns:xlink="http://www.w3.org/1999/xlink" contentStyleType="text/css" height="1660px" preserveAspectRatio="none" style="width:636px;height:1660px;background:#FFFFFF;" version="1.1" viewBox="0 0 636 1660" width="636px" zoomAndPan="magnify"><defs/><g><ellipse cx="315" cy="20" fill="#222222" rx="10" ry="10" style="stroke:#222222;stroke-width:1.0;"/><rect fill="#F1F1F1" height="33.9688" rx="12.5" ry="12.5" style="stroke:#181818;stroke-width:0.5;" width="174" x="228" y="50"/><text fill="#000000" font-family="sans-serif" font-size="12" lengthAdjust="spacing" textLength="154" x="238" y="71.1387">Configuraci&#243;n de Docker</text><polygon fill="#F1F1F1" points="250.5,103.9688,379.5,103.9688,391.5,115.9688,379.5,127.9688,250.5,127.9688,238.5,115.9688,250.5,103.9688" style="stroke:#181818;stroke-width:0.5;"/><text fill="#000000" font-family="sans-serif" font-size="11" lengthAdjust="spacing" textLength="129" x="250.5" y="119.7769">Configuraci&#243;n exitosa?</text><text fill="#000000" font-family="sans-serif" font-size="11" lengthAdjust="spacing" textLength="10" x="228.5" y="113.3745">s&#237;</text><text fill="#000000" font-family="sans-serif" font-size="11" lengthAdjust="spacing" textLength="14" x="391.5" y="113.3745">no</text><rect fill="#F1F1F1" height="33.9688" rx="12.5" ry="12.5" style="stroke:#181818;stroke-width:0.5;" width="174" x="119" y="137.9688"/><text fill="#000000" font-family="sans-serif" font-size="12" lengthAdjust="spacing" textLength="154" x="129" y="159.1074">Configuraci&#243;n de Laravel</text><rect fill="#F1F1F1" height="33.9688" rx="12.5" ry="12.5" style="stroke:#181818;stroke-width:0.5;" width="222" x="313" y="137.9688"/><text fill="#000000" font-family="sans-serif" font-size="12" lengthAdjust="spacing" textLength="202" x="323" y="159.1074">Revisar configuraci&#243;n de Docker</text><ellipse cx="424" cy="202.9375" fill="none" rx="11" ry="11" style="stroke:#222222;stroke-width:1.0;"/><ellipse cx="424" cy="202.9375" fill="#222222" rx="6" ry="6" style="stroke:#111111;stroke-width:1.0;"/><rect fill="#F1F1F1" height="33.9688" rx="12.5" ry="12.5" style="stroke:#181818;stroke-width:0.5;" width="125" x="252.5" y="233.9375"/><text fill="#000000" font-family="sans-serif" font-size="12" lengthAdjust="spacing" textLength="105" x="262.5" y="255.0762">Modelo de datos</text><rect fill="#F1F1F1" height="33.9688" rx="12.5" ry="12.5" style="stroke:#181818;stroke-width:0.5;" width="95" x="267.5" y="287.9063"/><text fill="#000000" font-family="sans-serif" font-size="12" lengthAdjust="spacing" textLength="75" x="277.5" y="309.0449">Migraciones</text><polygon fill="#F1F1F1" points="252,341.875,378,341.875,390,353.875,378,365.875,252,365.875,240,353.875,252,341.875" style="stroke:#181818;stroke-width:0.5;"/><text fill="#000000" font-family="sans-serif" font-size="11" lengthAdjust="spacing" textLength="126" x="252" y="357.6831">Migraciones exitosas?</text><text fill="#000000" font-family="sans-serif" font-size="11" lengthAdjust="spacing" textLength="10" x="230" y="351.2808">s&#237;</text><text fill="#000000" font-family="sans-serif" font-size="11" lengthAdjust="spacing" textLength="14" x="390" y="351.2808">no</text><rect fill="#F1F1F1" height="33.9688" rx="12.5" ry="12.5" style="stroke:#181818;stroke-width:0.5;" width="144" x="142" y="375.875"/><text fill="#000000" font-family="sans-serif" font-size="12" lengthAdjust="spacing" textLength="124" x="152" y="397.0137">Factories y Seeders</text><rect fill="#F1F1F1" height="33.9688" rx="12.5" ry="12.5" style="stroke:#181818;stroke-width:0.5;" width="220" x="306" y="375.875"/><text fill="#000000" font-family="sans-serif" font-size="12" lengthAdjust="spacing" textLength="200" x="316" y="397.0137">Corregir errores en migraciones</text><ellipse cx="416" cy="440.8438" fill="none" rx="11" ry="11" style="stroke:#222222;stroke-width:1.0;"/><ellipse cx="416" cy="440.8438" fill="#222222" rx="6" ry="6" style="stroke:#111111;stroke-width:1.0;"/><rect fill="#F1F1F1" height="33.9688" rx="12.5" ry="12.5" style="stroke:#181818;stroke-width:0.5;" width="164" x="233" y="471.8438"/><text fill="#000000" font-family="sans-serif" font-size="12" lengthAdjust="spacing" textLength="144" x="243" y="492.9824">Pruebas de Relaciones</text><polygon fill="#F1F1F1" points="269,525.8125,361,525.8125,373,537.8125,361,549.8125,269,549.8125,257,537.8125,269,525.8125" style="stroke:#181818;stroke-width:0.5;"/><text fill="#000000" font-family="sans-serif" font-size="11" lengthAdjust="spacing" textLength="92" x="269" y="541.6206">Pruebas pasan?</text><text fill="#000000" font-family="sans-serif" font-size="11" lengthAdjust="spacing" textLength="10" x="247" y="535.2183">s&#237;</text><text fill="#000000" font-family="sans-serif" font-size="11" lengthAdjust="spacing" textLength="14" x="373" y="535.2183">no</text><rect fill="#F1F1F1" height="33.9688" rx="12.5" ry="12.5" style="stroke:#181818;stroke-width:0.5;" width="198" x="104.25" y="559.8125"/><text fill="#000000" font-family="sans-serif" font-size="12" lengthAdjust="spacing" textLength="178" x="114.25" y="580.9512">Pruebas para Controladores</text><rect fill="#F1F1F1" height="33.9688" rx="12.5" ry="12.5" style="stroke:#181818;stroke-width:0.5;" width="209" x="322.25" y="559.8125"/><text fill="#000000" font-family="sans-serif" font-size="12" lengthAdjust="spacing" textLength="189" x="332.25" y="580.9512">Corregir errores en relaciones</text><ellipse cx="426.75" cy="624.7813" fill="none" rx="11" ry="11" style="stroke:#222222;stroke-width:1.0;"/><ellipse cx="426.75" cy="624.7813" fill="#222222" rx="6" ry="6" style="stroke:#111111;stroke-width:1.0;"/><polygon fill="#F1F1F1" points="217.5,655.7813,412.5,655.7813,424.5,667.7813,412.5,679.7813,217.5,679.7813,205.5,667.7813,217.5,655.7813" style="stroke:#181818;stroke-width:0.5;"/><text fill="#000000" font-family="sans-serif" font-size="11" lengthAdjust="spacing" textLength="195" x="217.5" y="671.5894">Pruebas de Controladores pasan?</text><text fill="#000000" font-family="sans-serif" font-size="11" lengthAdjust="spacing" textLength="10" x="195.5" y="665.187">s&#237;</text><text fill="#000000" font-family="sans-serif" font-size="11" lengthAdjust="spacing" textLength="14" x="424.5" y="665.187">no</text><rect fill="#F1F1F1" height="33.9688" rx="12.5" ry="12.5" style="stroke:#181818;stroke-width:0.5;" width="232" x="54" y="689.7813"/><text fill="#000000" font-family="sans-serif" font-size="12" lengthAdjust="spacing" textLength="212" x="64" y="710.9199">Implementaci&#243;n de Controladores</text><rect fill="#F1F1F1" height="33.9688" rx="12.5" ry="12.5" style="stroke:#181818;stroke-width:0.5;" width="308" x="306" y="689.7813"/><text fill="#000000" font-family="sans-serif" font-size="12" lengthAdjust="spacing" textLength="288" x="316" y="710.9199">Corregir errores en pruebas de controladores</text><ellipse cx="460" cy="754.75" fill="none" rx="11" ry="11" style="stroke:#222222;stroke-width:1.0;"/><ellipse cx="460" cy="754.75" fill="#222222" rx="6" ry="6" style="stroke:#111111;stroke-width:1.0;"/><rect fill="#F1F1F1" height="33.9688" rx="12.5" ry="12.5" style="stroke:#181818;stroke-width:0.5;" width="140" x="245" y="785.75"/><text fill="#000000" font-family="sans-serif" font-size="12" lengthAdjust="spacing" textLength="120" x="255" y="806.8887">Rutas y Middleware</text><rect fill="#F1F1F1" height="33.9688" rx="12.5" ry="12.5" style="stroke:#181818;stroke-width:0.5;" width="182" x="224" y="839.7188"/><text fill="#000000" font-family="sans-serif" font-size="12" lengthAdjust="spacing" textLength="162" x="234" y="860.8574">Pruebas de Autenticaci&#243;n</text><polygon fill="#F1F1F1" points="269,893.6875,361,893.6875,373,905.6875,361,917.6875,269,917.6875,257,905.6875,269,893.6875" style="stroke:#181818;stroke-width:0.5;"/><text fill="#000000" font-family="sans-serif" font-size="11" lengthAdjust="spacing" textLength="92" x="269" y="909.4956">Pruebas pasan?</text><text fill="#000000" font-family="sans-serif" font-size="11" lengthAdjust="spacing" textLength="10" x="247" y="903.0933">s&#237;</text><text fill="#000000" font-family="sans-serif" font-size="11" lengthAdjust="spacing" textLength="14" x="373" y="903.0933">no</text><rect fill="#F1F1F1" height="33.9688" rx="12.5" ry="12.5" style="stroke:#181818;stroke-width:0.5;" width="229" x="56.75" y="927.6875"/><text fill="#000000" font-family="sans-serif" font-size="12" lengthAdjust="spacing" textLength="209" x="66.75" y="948.8262">Implementaci&#243;n de Autenticaci&#243;n</text><rect fill="#F1F1F1" height="33.9688" rx="12.5" ry="12.5" style="stroke:#181818;stroke-width:0.5;" width="306" x="305.75" y="927.6875"/><text fill="#000000" font-family="sans-serif" font-size="12" lengthAdjust="spacing" textLength="286" x="315.75" y="948.8262">Corregir errores en pruebas de autenticaci&#243;n</text><ellipse cx="458.75" cy="992.6563" fill="none" rx="11" ry="11" style="stroke:#222222;stroke-width:1.0;"/><ellipse cx="458.75" cy="992.6563" fill="#222222" rx="6" ry="6" style="stroke:#111111;stroke-width:1.0;"/><rect fill="#F1F1F1" height="33.9688" rx="12.5" ry="12.5" style="stroke:#181818;stroke-width:0.5;" width="99" x="265.5" y="1023.6563"/><text fill="#000000" font-family="sans-serif" font-size="12" lengthAdjust="spacing" textLength="79" x="275.5" y="1044.7949">Validaciones</text><rect fill="#F1F1F1" height="33.9688" rx="12.5" ry="12.5" style="stroke:#181818;stroke-width:0.5;" width="118" x="256" y="1077.625"/><text fill="#000000" font-family="sans-serif" font-size="12" lengthAdjust="spacing" textLength="98" x="266" y="1098.7637">OWASP Top Ten</text><polygon fill="#F1F1F1" points="255.5,1131.5938,374.5,1131.5938,386.5,1143.5938,374.5,1155.5938,255.5,1155.5938,243.5,1143.5938,255.5,1131.5938" style="stroke:#181818;stroke-width:0.5;"/><text fill="#000000" font-family="sans-serif" font-size="11" lengthAdjust="spacing" textLength="119" x="255.5" y="1147.4019">Frontend con Vue.js?</text><text fill="#000000" font-family="sans-serif" font-size="11" lengthAdjust="spacing" textLength="10" x="233.5" y="1140.9995">s&#237;</text><text fill="#000000" font-family="sans-serif" font-size="11" lengthAdjust="spacing" textLength="31" x="386.5" y="1140.9995">React</text><rect fill="#F1F1F1" height="33.9688" rx="12.5" ry="12.5" style="stroke:#181818;stroke-width:0.5;" width="148" x="82.5" y="1165.5938"/><text fill="#000000" font-family="sans-serif" font-size="12" lengthAdjust="spacing" textLength="128" x="92.5" y="1186.7324">Configuraci&#243;n Vue.js</text><rect fill="#F1F1F1" height="33.9688" rx="12.5" ry="12.5" style="stroke:#181818;stroke-width:0.5;" width="211" x="51" y="1219.5625"/><text fill="#000000" font-family="sans-serif" font-size="12" lengthAdjust="spacing" textLength="191" x="61" y="1240.7012">Pruebas de Componentes Vue</text><rect fill="#F1F1F1" height="33.9688" rx="12.5" ry="12.5" style="stroke:#181818;stroke-width:0.5;" width="291" x="11" y="1273.5313"/><text fill="#000000" font-family="sans-serif" font-size="12" lengthAdjust="spacing" textLength="271" x="21" y="1294.6699">Implementaci&#243;n de Componentes y API Vue</text><rect fill="#F1F1F1" height="33.9688" rx="12.5" ry="12.5" style="stroke:#181818;stroke-width:0.5;" width="146" x="400.5" y="1165.5938"/><text fill="#000000" font-family="sans-serif" font-size="12" lengthAdjust="spacing" textLength="126" x="410.5" y="1186.7324">Configuraci&#243;n React</text><rect fill="#F1F1F1" height="33.9688" rx="12.5" ry="12.5" style="stroke:#181818;stroke-width:0.5;" width="223" x="362" y="1219.5625"/><text fill="#000000" font-family="sans-serif" font-size="12" lengthAdjust="spacing" textLength="203" x="372" y="1240.7012">Pruebas de Componentes React</text><rect fill="#F1F1F1" height="33.9688" rx="12.5" ry="12.5" style="stroke:#181818;stroke-width:0.5;" width="303" x="322" y="1273.5313"/><text fill="#000000" font-family="sans-serif" font-size="12" lengthAdjust="spacing" textLength="283" x="332" y="1294.6699">Implementaci&#243;n de Componentes y API React</text><polygon fill="#F1F1F1" points="315,1313.5,327,1325.5,315,1337.5,303,1325.5,315,1313.5" style="stroke:#181818;stroke-width:0.5;"/><rect fill="#F1F1F1" height="33.9688" rx="12.5" ry="12.5" style="stroke:#181818;stroke-width:0.5;" width="61" x="284.5" y="1357.5"/><text fill="#000000" font-family="sans-serif" font-size="12" lengthAdjust="spacing" textLength="41" x="294.5" y="1378.6387">Estilos</text><rect fill="#F1F1F1" height="33.9688" rx="12.5" ry="12.5" style="stroke:#181818;stroke-width:0.5;" width="215" x="207.5" y="1411.4688"/><text fill="#000000" font-family="sans-serif" font-size="12" lengthAdjust="spacing" textLength="195" x="217.5" y="1432.6074">Inicializaci&#243;n y Features GitFlow</text><rect fill="#F1F1F1" height="33.9688" rx="12.5" ry="12.5" style="stroke:#181818;stroke-width:0.5;" width="141" x="244.5" y="1465.4375"/><text fill="#000000" font-family="sans-serif" font-size="12" lengthAdjust="spacing" textLength="121" x="254.5" y="1486.5762">Releases y Hotfixes</text><rect fill="#F1F1F1" height="33.9688" rx="12.5" ry="12.5" style="stroke:#181818;stroke-width:0.5;" width="135" x="247.5" y="1519.4063"/><text fill="#000000" font-family="sans-serif" font-size="12" lengthAdjust="spacing" textLength="115" x="257.5" y="1540.5449">Pull Requests (PR)</text><rect fill="#F1F1F1" height="33.9688" rx="12.5" ry="12.5" style="stroke:#181818;stroke-width:0.5;" width="148" x="241" y="1573.375"/><text fill="#000000" font-family="sans-serif" font-size="12" lengthAdjust="spacing" textLength="128" x="251" y="1594.5137">Docker y Producci&#243;n</text><ellipse cx="315" cy="1638.3438" fill="none" rx="11" ry="11" style="stroke:#222222;stroke-width:1.0;"/><ellipse cx="315" cy="1638.3438" fill="#222222" rx="6" ry="6" style="stroke:#111111;stroke-width:1.0;"/><line style="stroke:#181818;stroke-width:1.0;" x1="315" x2="315" y1="30" y2="50"/><polygon fill="#181818" points="311,40,315,50,319,40,315,44" style="stroke:#181818;stroke-width:1.0;"/><line style="stroke:#181818;stroke-width:1.0;" x1="424" x2="424" y1="171.9375" y2="191.9375"/><polygon fill="#181818" points="420,181.9375,424,191.9375,428,181.9375,424,185.9375" style="stroke:#181818;stroke-width:1.0;"/><line style="stroke:#181818;stroke-width:1.0;" x1="238.5" x2="206" y1="115.9688" y2="115.9688"/><line style="stroke:#181818;stroke-width:1.0;" x1="206" x2="206" y1="115.9688" y2="137.9688"/><polygon fill="#181818" points="202,127.9688,206,137.9688,210,127.9688,206,131.9688" style="stroke:#181818;stroke-width:1.0;"/><line style="stroke:#181818;stroke-width:1.0;" x1="391.5" x2="424" y1="115.9688" y2="115.9688"/><line style="stroke:#181818;stroke-width:1.0;" x1="424" x2="424" y1="115.9688" y2="137.9688"/><polygon fill="#181818" points="420,127.9688,424,137.9688,428,127.9688,424,131.9688" style="stroke:#181818;stroke-width:1.0;"/><line style="stroke:#181818;stroke-width:1.0;" x1="206" x2="206" y1="171.9375" y2="218.9375"/><line style="stroke:#181818;stroke-width:1.0;" x1="206" x2="315" y1="218.9375" y2="218.9375"/><line style="stroke:#181818;stroke-width:1.0;" x1="315" x2="315" y1="218.9375" y2="233.9375"/><polygon fill="#181818" points="311,223.9375,315,233.9375,319,223.9375,315,227.9375" style="stroke:#181818;stroke-width:1.0;"/><line style="stroke:#181818;stroke-width:1.0;" x1="315" x2="315" y1="83.9688" y2="103.9688"/><polygon fill="#181818" points="311,93.9688,315,103.9688,319,93.9688,315,97.9688" style="stroke:#181818;stroke-width:1.0;"/><line style="stroke:#181818;stroke-width:1.0;" x1="315" x2="315" y1="267.9063" y2="287.9063"/><polygon fill="#181818" points="311,277.9063,315,287.9063,319,277.9063,315,281.9063" style="stroke:#181818;stroke-width:1.0;"/><line style="stroke:#181818;stroke-width:1.0;" x1="416" x2="416" y1="409.8438" y2="429.8438"/><polygon fill="#181818" points="412,419.8438,416,429.8438,420,419.8438,416,423.8438" style="stroke:#181818;stroke-width:1.0;"/><line style="stroke:#181818;stroke-width:1.0;" x1="240" x2="214" y1="353.875" y2="353.875"/><line style="stroke:#181818;stroke-width:1.0;" x1="214" x2="214" y1="353.875" y2="375.875"/><polygon fill="#181818" points="210,365.875,214,375.875,218,365.875,214,369.875" style="stroke:#181818;stroke-width:1.0;"/><line style="stroke:#181818;stroke-width:1.0;" x1="390" x2="416" y1="353.875" y2="353.875"/><line style="stroke:#181818;stroke-width:1.0;" x1="416" x2="416" y1="353.875" y2="375.875"/><polygon fill="#181818" points="412,365.875,416,375.875,420,365.875,416,369.875" style="stroke:#181818;stroke-width:1.0;"/><line style="stroke:#181818;stroke-width:1.0;" x1="214" x2="214" y1="409.8438" y2="456.8438"/><line style="stroke:#181818;stroke-width:1.0;" x1="214" x2="315" y1="456.8438" y2="456.8438"/><line style="stroke:#181818;stroke-width:1.0;" x1="315" x2="315" y1="456.8438" y2="471.8438"/><polygon fill="#181818" points="311,461.8438,315,471.8438,319,461.8438,315,465.8438" style="stroke:#181818;stroke-width:1.0;"/><line style="stroke:#181818;stroke-width:1.0;" x1="315" x2="315" y1="321.875" y2="341.875"/><polygon fill="#181818" points="311,331.875,315,341.875,319,331.875,315,335.875" style="stroke:#181818;stroke-width:1.0;"/><line style="stroke:#181818;stroke-width:1.0;" x1="426.75" x2="426.75" y1="593.7813" y2="613.7813"/><polygon fill="#181818" points="422.75,603.7813,426.75,613.7813,430.75,603.7813,426.75,607.7813" style="stroke:#181818;stroke-width:1.0;"/><line style="stroke:#181818;stroke-width:1.0;" x1="257" x2="203.25" y1="537.8125" y2="537.8125"/><line style="stroke:#181818;stroke-width:1.0;" x1="203.25" x2="203.25" y1="537.8125" y2="559.8125"/><polygon fill="#181818" points="199.25,549.8125,203.25,559.8125,207.25,549.8125,203.25,553.8125" style="stroke:#181818;stroke-width:1.0;"/><line style="stroke:#181818;stroke-width:1.0;" x1="373" x2="426.75" y1="537.8125" y2="537.8125"/><line style="stroke:#181818;stroke-width:1.0;" x1="426.75" x2="426.75" y1="537.8125" y2="559.8125"/><polygon fill="#181818" points="422.75,549.8125,426.75,559.8125,430.75,549.8125,426.75,553.8125" style="stroke:#181818;stroke-width:1.0;"/><line style="stroke:#181818;stroke-width:1.0;" x1="203.25" x2="203.25" y1="593.7813" y2="640.7813"/><line style="stroke:#181818;stroke-width:1.0;" x1="203.25" x2="315" y1="640.7813" y2="640.7813"/><line style="stroke:#181818;stroke-width:1.0;" x1="315" x2="315" y1="640.7813" y2="655.7813"/><polygon fill="#181818" points="311,645.7813,315,655.7813,319,645.7813,315,649.7813" style="stroke:#181818;stroke-width:1.0;"/><line style="stroke:#181818;stroke-width:1.0;" x1="315" x2="315" y1="505.8125" y2="525.8125"/><polygon fill="#181818" points="311,515.8125,315,525.8125,319,515.8125,315,519.8125" style="stroke:#181818;stroke-width:1.0;"/><line style="stroke:#181818;stroke-width:1.0;" x1="460" x2="460" y1="723.75" y2="743.75"/><polygon fill="#181818" points="456,733.75,460,743.75,464,733.75,460,737.75" style="stroke:#181818;stroke-width:1.0;"/><line style="stroke:#181818;stroke-width:1.0;" x1="205.5" x2="170" y1="667.7813" y2="667.7813"/><line style="stroke:#181818;stroke-width:1.0;" x1="170" x2="170" y1="667.7813" y2="689.7813"/><polygon fill="#181818" points="166,679.7813,170,689.7813,174,679.7813,170,683.7813" style="stroke:#181818;stroke-width:1.0;"/><line style="stroke:#181818;stroke-width:1.0;" x1="424.5" x2="460" y1="667.7813" y2="667.7813"/><line style="stroke:#181818;stroke-width:1.0;" x1="460" x2="460" y1="667.7813" y2="689.7813"/><polygon fill="#181818" points="456,679.7813,460,689.7813,464,679.7813,460,683.7813" style="stroke:#181818;stroke-width:1.0;"/><line style="stroke:#181818;stroke-width:1.0;" x1="170" x2="170" y1="723.75" y2="770.75"/><line style="stroke:#181818;stroke-width:1.0;" x1="170" x2="315" y1="770.75" y2="770.75"/><line style="stroke:#181818;stroke-width:1.0;" x1="315" x2="315" y1="770.75" y2="785.75"/><polygon fill="#181818" points="311,775.75,315,785.75,319,775.75,315,779.75" style="stroke:#181818;stroke-width:1.0;"/><line style="stroke:#181818;stroke-width:1.0;" x1="315" x2="315" y1="819.7188" y2="839.7188"/><polygon fill="#181818" points="311,829.7188,315,839.7188,319,829.7188,315,833.7188" style="stroke:#181818;stroke-width:1.0;"/><line style="stroke:#181818;stroke-width:1.0;" x1="458.75" x2="458.75" y1="961.6563" y2="981.6563"/><polygon fill="#181818" points="454.75,971.6563,458.75,981.6563,462.75,971.6563,458.75,975.6563" style="stroke:#181818;stroke-width:1.0;"/><line style="stroke:#181818;stroke-width:1.0;" x1="257" x2="171.25" y1="905.6875" y2="905.6875"/><line style="stroke:#181818;stroke-width:1.0;" x1="171.25" x2="171.25" y1="905.6875" y2="927.6875"/><polygon fill="#181818" points="167.25,917.6875,171.25,927.6875,175.25,917.6875,171.25,921.6875" style="stroke:#181818;stroke-width:1.0;"/><line style="stroke:#181818;stroke-width:1.0;" x1="373" x2="458.75" y1="905.6875" y2="905.6875"/><line style="stroke:#181818;stroke-width:1.0;" x1="458.75" x2="458.75" y1="905.6875" y2="927.6875"/><polygon fill="#181818" points="454.75,917.6875,458.75,927.6875,462.75,917.6875,458.75,921.6875" style="stroke:#181818;stroke-width:1.0;"/><line style="stroke:#181818;stroke-width:1.0;" x1="171.25" x2="171.25" y1="961.6563" y2="1008.6563"/><line style="stroke:#181818;stroke-width:1.0;" x1="171.25" x2="315" y1="1008.6563" y2="1008.6563"/><line style="stroke:#181818;stroke-width:1.0;" x1="315" x2="315" y1="1008.6563" y2="1023.6563"/><polygon fill="#181818" points="311,1013.6563,315,1023.6563,319,1013.6563,315,1017.6563" style="stroke:#181818;stroke-width:1.0;"/><line style="stroke:#181818;stroke-width:1.0;" x1="315" x2="315" y1="873.6875" y2="893.6875"/><polygon fill="#181818" points="311,883.6875,315,893.6875,319,883.6875,315,887.6875" style="stroke:#181818;stroke-width:1.0;"/><line style="stroke:#181818;stroke-width:1.0;" x1="315" x2="315" y1="1057.625" y2="1077.625"/><polygon fill="#181818" points="311,1067.625,315,1077.625,319,1067.625,315,1071.625" style="stroke:#181818;stroke-width:1.0;"/><line style="stroke:#181818;stroke-width:1.0;" x1="156.5" x2="156.5" y1="1199.5625" y2="1219.5625"/><polygon fill="#181818" points="152.5,1209.5625,156.5,1219.5625,160.5,1209.5625,156.5,1213.5625" style="stroke:#181818;stroke-width:1.0;"/><line style="stroke:#181818;stroke-width:1.0;" x1="156.5" x2="156.5" y1="1253.5313" y2="1273.5313"/><polygon fill="#181818" points="152.5,1263.5313,156.5,1273.5313,160.5,1263.5313,156.5,1267.5313" style="stroke:#181818;stroke-width:1.0;"/><line style="stroke:#181818;stroke-width:1.0;" x1="473.5" x2="473.5" y1="1199.5625" y2="1219.5625"/><polygon fill="#181818" points="469.5,1209.5625,473.5,1219.5625,477.5,1209.5625,473.5,1213.5625" style="stroke:#181818;stroke-width:1.0;"/><line style="stroke:#181818;stroke-width:1.0;" x1="473.5" x2="473.5" y1="1253.5313" y2="1273.5313"/><polygon fill="#181818" points="469.5,1263.5313,473.5,1273.5313,477.5,1263.5313,473.5,1267.5313" style="stroke:#181818;stroke-width:1.0;"/><line style="stroke:#181818;stroke-width:1.0;" x1="243.5" x2="156.5" y1="1143.5938" y2="1143.5938"/><line style="stroke:#181818;stroke-width:1.0;" x1="156.5" x2="156.5" y1="1143.5938" y2="1165.5938"/><polygon fill="#181818" points="152.5,1155.5938,156.5,1165.5938,160.5,1155.5938,156.5,1159.5938" style="stroke:#181818;stroke-width:1.0;"/><line style="stroke:#181818;stroke-width:1.0;" x1="386.5" x2="473.5" y1="1143.5938" y2="1143.5938"/><line style="stroke:#181818;stroke-width:1.0;" x1="473.5" x2="473.5" y1="1143.5938" y2="1165.5938"/><polygon fill="#181818" points="469.5,1155.5938,473.5,1165.5938,477.5,1155.5938,473.5,1159.5938" style="stroke:#181818;stroke-width:1.0;"/><line style="stroke:#181818;stroke-width:1.0;" x1="156.5" x2="156.5" y1="1307.5" y2="1325.5"/><line style="stroke:#181818;stroke-width:1.0;" x1="156.5" x2="303" y1="1325.5" y2="1325.5"/><polygon fill="#181818" points="293,1321.5,303,1325.5,293,1329.5,297,1325.5" style="stroke:#181818;stroke-width:1.0;"/><line style="stroke:#181818;stroke-width:1.0;" x1="473.5" x2="473.5" y1="1307.5" y2="1325.5"/><line style="stroke:#181818;stroke-width:1.0;" x1="473.5" x2="327" y1="1325.5" y2="1325.5"/><polygon fill="#181818" points="337,1321.5,327,1325.5,337,1329.5,333,1325.5" style="stroke:#181818;stroke-width:1.0;"/><line style="stroke:#181818;stroke-width:1.0;" x1="315" x2="315" y1="1111.5938" y2="1131.5938"/><polygon fill="#181818" points="311,1121.5938,315,1131.5938,319,1121.5938,315,1125.5938" style="stroke:#181818;stroke-width:1.0;"/><line style="stroke:#181818;stroke-width:1.0;" x1="315" x2="315" y1="1337.5" y2="1357.5"/><polygon fill="#181818" points="311,1347.5,315,1357.5,319,1347.5,315,1351.5" style="stroke:#181818;stroke-width:1.0;"/><line style="stroke:#181818;stroke-width:1.0;" x1="315" x2="315" y1="1391.4688" y2="1411.4688"/><polygon fill="#181818" points="311,1401.4688,315,1411.4688,319,1401.4688,315,1405.4688" style="stroke:#181818;stroke-width:1.0;"/><line style="stroke:#181818;stroke-width:1.0;" x1="315" x2="315" y1="1445.4375" y2="1465.4375"/><polygon fill="#181818" points="311,1455.4375,315,1465.4375,319,1455.4375,315,1459.4375" style="stroke:#181818;stroke-width:1.0;"/><line style="stroke:#181818;stroke-width:1.0;" x1="315" x2="315" y1="1499.4063" y2="1519.4063"/><polygon fill="#181818" points="311,1509.4063,315,1519.4063,319,1509.4063,315,1513.4063" style="stroke:#181818;stroke-width:1.0;"/><line style="stroke:#181818;stroke-width:1.0;" x1="315" x2="315" y1="1553.375" y2="1573.375"/><polygon fill="#181818" points="311,1563.375,315,1573.375,319,1563.375,315,1567.375" style="stroke:#181818;stroke-width:1.0;"/><line style="stroke:#181818;stroke-width:1.0;" x1="315" x2="315" y1="1607.3438" y2="1627.3438"/><polygon fill="#181818" points="311,1617.3438,315,1627.3438,319,1617.3438,315,1621.3438" style="stroke:#181818;stroke-width:1.0;"/><!--SRC=[bPJFKjim4CRlVeez9fS-03um6KhQp9Ifnp3qlBKsGKMHt9K4fE_4YKVWnLZPIVqd2OIhzjlzVlvMiW_88SlEBfnTwbLahFJhYmL5yDLLzyHvffSm6LNfIGVdyNmAuOuiJFphypG3E33a1p8-aCapCfvWObsZA-b1UsIeZfe2-E3gZApIIw6xSegCImA5ufod8xrAVSwIRnbx1pj0lqSunoeurYBPm3MH8lOZjWl7J2lDGCoEqomBwxxN2AtWIB_H9xQIp81eLwhHezr3wQgC8Ca5TWPLiZo1Y7jMGw2-iJ0D1XyXMQnhGskoeTl3Ptdgph4QjexYAcF05FwLLihG8pBbmn1dCGY9hbgMKu8yW3yUyXb-7FMEFk0MZLR_iy_EVlwQNHTmusgu8L4tl7EM3AGXPG6taRxyyH-zbLQLzoz6iuPrBKOop2T5VdHRdMm3isBHYjklBadk_27Bfl2UOoSuoNChtmLrwOCsxLjTM5rfoUtVjdq3Sy8GK_RVT9WRzvXKydm8VJFkkmjB_TG6N4HZPFRVI3vukGlbD9ssFmgH5knKhBQxoffLlG40]--></g></svg>