<?xml version="1.0" encoding="us-ascii" standalone="no"?><svg xmlns="http://www.w3.org/2000/svg" xmlns:xlink="http://www.w3.org/1999/xlink" contentStyleType="text/css" height="511px" preserveAspectRatio="none" style="width:1760px;height:511px;background:#FFFFFF;" version="1.1" viewBox="0 0 1760 511" width="1760px" zoomAndPan="magnify"><defs/><g><!--cluster Frontend (Vue.js/React)--><g id="cluster_Frontend (Vue.js/React)"><path d="M8.5,49 L196.5,49 A3.75,3.75 0 0 1 199,51.5 L206,71.2969 L356.5,71.2969 A2.5,2.5 0 0 1 359,73.7969 L359,250.1 A2.5,2.5 0 0 1 356.5,252.6 L8.5,252.6 A2.5,2.5 0 0 1 6,250.1 L6,51.5 A2.5,2.5 0 0 1 8.5,49 " fill="none" style="stroke:#000000;stroke-width:1.5;"/><line style="stroke:#000000;stroke-width:1.5;" x1="6" x2="206" y1="71.2969" y2="71.2969"/><text fill="#000000" font-family="sans-serif" font-size="14" font-weight="bold" lengthAdjust="spacing" textLength="187" x="10" y="63.9951">Frontend (Vue.js/React)</text></g><!--cluster Backend (Laravel)--><g id="cluster_Backend (Laravel)"><path d="M385.5,6 L527.5,6 A3.75,3.75 0 0 1 530,8.5 L537,28.2969 L1457.5,28.2969 A2.5,2.5 0 0 1 1460,30.7969 L1460,274.1 A2.5,2.5 0 0 1 1457.5,276.6 L385.5,276.6 A2.5,2.5 0 0 1 383,274.1 L383,8.5 A2.5,2.5 0 0 1 385.5,6 " fill="none" style="stroke:#000000;stroke-width:1.5;"/><line style="stroke:#000000;stroke-width:1.5;" x1="383" x2="537" y1="28.2969" y2="28.2969"/><text fill="#000000" font-family="sans-serif" font-size="14" font-weight="bold" lengthAdjust="spacing" textLength="141" x="387" y="20.9951">Backend (Laravel)</text></g><!--cluster Controladores--><g id="cluster_Controladores"><path d="M1020.5,49 L1134.5,49 A3.75,3.75 0 0 1 1137,51.5 L1144,71.2969 L1433.5,71.2969 A2.5,2.5 0 0 1 1436,73.7969 L1436,250.1 A2.5,2.5 0 0 1 1433.5,252.6 L1020.5,252.6 A2.5,2.5 0 0 1 1018,250.1 L1018,51.5 A2.5,2.5 0 0 1 1020.5,49 " fill="none" style="stroke:#000000;stroke-width:1.5;"/><line style="stroke:#000000;stroke-width:1.5;" x1="1018" x2="1144" y1="71.2969" y2="71.2969"/><text fill="#000000" font-family="sans-serif" font-size="14" font-weight="bold" lengthAdjust="spacing" textLength="113" x="1022" y="63.9951">Controladores</text></g><!--cluster Modelos--><g id="cluster_Modelos"><path d="M653.5,49 L720.5,49 A3.75,3.75 0 0 1 723,51.5 L730,71.2969 L991.5,71.2969 A2.5,2.5 0 0 1 994,73.7969 L994,250.1 A2.5,2.5 0 0 1 991.5,252.6 L653.5,252.6 A2.5,2.5 0 0 1 651,250.1 L651,51.5 A2.5,2.5 0 0 1 653.5,49 " fill="none" style="stroke:#000000;stroke-width:1.5;"/><line style="stroke:#000000;stroke-width:1.5;" x1="651" x2="730" y1="71.2969" y2="71.2969"/><text fill="#000000" font-family="sans-serif" font-size="14" font-weight="bold" lengthAdjust="spacing" textLength="66" x="655" y="63.9951">Modelos</text></g><!--cluster Base de Datos--><g id="cluster_Base de Datos"><path d="M1486.5,49 L1600.5,49 A3.75,3.75 0 0 1 1603,51.5 L1610,71.2969 L1750.5,71.2969 A2.5,2.5 0 0 1 1753,73.7969 L1753,143.8 A2.5,2.5 0 0 1 1750.5,146.3 L1486.5,146.3 A2.5,2.5 0 0 1 1484,143.8 L1484,51.5 A2.5,2.5 0 0 1 1486.5,49 " fill="none" style="stroke:#000000;stroke-width:1.5;"/><line style="stroke:#000000;stroke-width:1.5;" x1="1484" x2="1610" y1="71.2969" y2="71.2969"/><text fill="#000000" font-family="sans-serif" font-size="14" font-weight="bold" lengthAdjust="spacing" textLength="113" x="1488" y="63.9951">Base de Datos</text></g><!--cluster Infraestructura--><g id="cluster_Infraestructura"><path d="M41.5,300.6 L161.5,300.6 A3.75,3.75 0 0 1 164,303.1 L171,322.8969 L263.5,322.8969 A2.5,2.5 0 0 1 266,325.3969 L266,501.69 A2.5,2.5 0 0 1 263.5,504.19 L41.5,504.19 A2.5,2.5 0 0 1 39,501.69 L39,303.1 A2.5,2.5 0 0 1 41.5,300.6 " fill="none" style="stroke:#000000;stroke-width:1.5;"/><line style="stroke:#000000;stroke-width:1.5;" x1="39" x2="171" y1="322.8969" y2="322.8969"/><text fill="#000000" font-family="sans-serif" font-size="14" font-weight="bold" lengthAdjust="spacing" textLength="119" x="43" y="315.5951">Infraestructura</text></g><!--entity Componentes UI--><g id="elem_Componentes UI"><rect fill="#F1F1F1" height="46.2969" rx="2.5" ry="2.5" style="stroke:#181818;stroke-width:0.5;" width="156" x="22" y="84"/><rect fill="#F1F1F1" height="10" style="stroke:#181818;stroke-width:0.5;" width="15" x="158" y="89"/><rect fill="#F1F1F1" height="2" style="stroke:#181818;stroke-width:0.5;" width="4" x="156" y="91"/><rect fill="#F1F1F1" height="2" style="stroke:#181818;stroke-width:0.5;" width="4" x="156" y="95"/><text fill="#000000" font-family="sans-serif" font-size="14" lengthAdjust="spacing" textLength="116" x="37" y="116.9951">Componentes UI</text></g><!--entity Llamadas API--><g id="elem_Llamadas API"><rect fill="#F1F1F1" height="46.2969" rx="2.5" ry="2.5" style="stroke:#181818;stroke-width:0.5;" width="129" x="213.5" y="84"/><rect fill="#F1F1F1" height="10" style="stroke:#181818;stroke-width:0.5;" width="15" x="322.5" y="89"/><rect fill="#F1F1F1" height="2" style="stroke:#181818;stroke-width:0.5;" width="4" x="320.5" y="91"/><rect fill="#F1F1F1" height="2" style="stroke:#181818;stroke-width:0.5;" width="4" x="320.5" y="95"/><text fill="#000000" font-family="sans-serif" font-size="14" lengthAdjust="spacing" textLength="89" x="228.5" y="116.9951">Llamadas API</text></g><!--entity Estilos--><g id="elem_Estilos"><rect fill="#F1F1F1" height="46.2969" rx="2.5" ry="2.5" style="stroke:#181818;stroke-width:0.5;" width="85" x="57.5" y="190.3"/><rect fill="#F1F1F1" height="10" style="stroke:#181818;stroke-width:0.5;" width="15" x="122.5" y="195.3"/><rect fill="#F1F1F1" height="2" style="stroke:#181818;stroke-width:0.5;" width="4" x="120.5" y="197.3"/><rect fill="#F1F1F1" height="2" style="stroke:#181818;stroke-width:0.5;" width="4" x="120.5" y="201.3"/><text fill="#000000" font-family="sans-serif" font-size="14" lengthAdjust="spacing" textLength="45" x="72.5" y="223.2951">Estilos</text></g><!--entity Rutas--><g id="elem_Rutas"><rect fill="#F1F1F1" height="46.2969" rx="2.5" ry="2.5" style="stroke:#181818;stroke-width:0.5;" width="80" x="399" y="84"/><rect fill="#F1F1F1" height="10" style="stroke:#181818;stroke-width:0.5;" width="15" x="459" y="89"/><rect fill="#F1F1F1" height="2" style="stroke:#181818;stroke-width:0.5;" width="4" x="457" y="91"/><rect fill="#F1F1F1" height="2" style="stroke:#181818;stroke-width:0.5;" width="4" x="457" y="95"/><text fill="#000000" font-family="sans-serif" font-size="14" lengthAdjust="spacing" textLength="40" x="414" y="116.9951">Rutas</text></g><!--entity Middleware--><g id="elem_Middleware"><rect fill="#F1F1F1" height="46.2969" rx="2.5" ry="2.5" style="stroke:#181818;stroke-width:0.5;" width="118" x="514" y="84"/><rect fill="#F1F1F1" height="10" style="stroke:#181818;stroke-width:0.5;" width="15" x="612" y="89"/><rect fill="#F1F1F1" height="2" style="stroke:#181818;stroke-width:0.5;" width="4" x="610" y="91"/><rect fill="#F1F1F1" height="2" style="stroke:#181818;stroke-width:0.5;" width="4" x="610" y="95"/><text fill="#000000" font-family="sans-serif" font-size="14" lengthAdjust="spacing" textLength="78" x="529" y="116.9951">Middleware</text></g><!--entity Autenticaci?n--><g id="elem_Autenticaci&#243;n"><rect fill="#F1F1F1" height="46.2969" rx="2.5" ry="2.5" style="stroke:#181818;stroke-width:0.5;" width="134" x="399" y="190.3"/><rect fill="#F1F1F1" height="10" style="stroke:#181818;stroke-width:0.5;" width="15" x="513" y="195.3"/><rect fill="#F1F1F1" height="2" style="stroke:#181818;stroke-width:0.5;" width="4" x="511" y="197.3"/><rect fill="#F1F1F1" height="2" style="stroke:#181818;stroke-width:0.5;" width="4" x="511" y="201.3"/><text fill="#000000" font-family="sans-serif" font-size="14" lengthAdjust="spacing" textLength="94" x="414" y="223.2951">Autenticaci&#243;n</text></g><!--entity Controlador Usuarios--><g id="elem_Controlador Usuarios"><rect fill="#F1F1F1" height="46.2969" rx="2.5" ry="2.5" style="stroke:#181818;stroke-width:0.5;" width="185" x="1033.5" y="84"/><rect fill="#F1F1F1" height="10" style="stroke:#181818;stroke-width:0.5;" width="15" x="1198.5" y="89"/><rect fill="#F1F1F1" height="2" style="stroke:#181818;stroke-width:0.5;" width="4" x="1196.5" y="91"/><rect fill="#F1F1F1" height="2" style="stroke:#181818;stroke-width:0.5;" width="4" x="1196.5" y="95"/><text fill="#000000" font-family="sans-serif" font-size="14" lengthAdjust="spacing" textLength="145" x="1048.5" y="116.9951">Controlador Usuarios</text></g><!--entity Controlador Libros--><g id="elem_Controlador Libros"><rect fill="#F1F1F1" height="46.2969" rx="2.5" ry="2.5" style="stroke:#181818;stroke-width:0.5;" width="166" x="1254" y="84"/><rect fill="#F1F1F1" height="10" style="stroke:#181818;stroke-width:0.5;" width="15" x="1400" y="89"/><rect fill="#F1F1F1" height="2" style="stroke:#181818;stroke-width:0.5;" width="4" x="1398" y="91"/><rect fill="#F1F1F1" height="2" style="stroke:#181818;stroke-width:0.5;" width="4" x="1398" y="95"/><text fill="#000000" font-family="sans-serif" font-size="14" lengthAdjust="spacing" textLength="126" x="1269" y="116.9951">Controlador Libros</text></g><!--entity Controlador Intercambios--><g id="elem_Controlador Intercambios"><rect fill="#F1F1F1" height="46.2969" rx="2.5" ry="2.5" style="stroke:#181818;stroke-width:0.5;" width="214" x="1034" y="190.3"/><rect fill="#F1F1F1" height="10" style="stroke:#181818;stroke-width:0.5;" width="15" x="1228" y="195.3"/><rect fill="#F1F1F1" height="2" style="stroke:#181818;stroke-width:0.5;" width="4" x="1226" y="197.3"/><rect fill="#F1F1F1" height="2" style="stroke:#181818;stroke-width:0.5;" width="4" x="1226" y="201.3"/><text fill="#000000" font-family="sans-serif" font-size="14" lengthAdjust="spacing" textLength="174" x="1049" y="223.2951">Controlador Intercambios</text></g><!--entity Modelo Usuario--><g id="elem_Modelo Usuario"><rect fill="#F1F1F1" height="46.2969" rx="2.5" ry="2.5" style="stroke:#181818;stroke-width:0.5;" width="147" x="667.5" y="84"/><rect fill="#F1F1F1" height="10" style="stroke:#181818;stroke-width:0.5;" width="15" x="794.5" y="89"/><rect fill="#F1F1F1" height="2" style="stroke:#181818;stroke-width:0.5;" width="4" x="792.5" y="91"/><rect fill="#F1F1F1" height="2" style="stroke:#181818;stroke-width:0.5;" width="4" x="792.5" y="95"/><text fill="#000000" font-family="sans-serif" font-size="14" lengthAdjust="spacing" textLength="107" x="682.5" y="116.9951">Modelo Usuario</text></g><!--entity Modelo Libro--><g id="elem_Modelo Libro"><rect fill="#F1F1F1" height="46.2969" rx="2.5" ry="2.5" style="stroke:#181818;stroke-width:0.5;" width="128" x="850" y="84"/><rect fill="#F1F1F1" height="10" style="stroke:#181818;stroke-width:0.5;" width="15" x="958" y="89"/><rect fill="#F1F1F1" height="2" style="stroke:#181818;stroke-width:0.5;" width="4" x="956" y="91"/><rect fill="#F1F1F1" height="2" style="stroke:#181818;stroke-width:0.5;" width="4" x="956" y="95"/><text fill="#000000" font-family="sans-serif" font-size="14" lengthAdjust="spacing" textLength="88" x="865" y="116.9951">Modelo Libro</text></g><!--entity Modelo Intercambio--><g id="elem_Modelo Intercambio"><rect fill="#F1F1F1" height="46.2969" rx="2.5" ry="2.5" style="stroke:#181818;stroke-width:0.5;" width="176" x="667" y="190.3"/><rect fill="#F1F1F1" height="10" style="stroke:#181818;stroke-width:0.5;" width="15" x="823" y="195.3"/><rect fill="#F1F1F1" height="2" style="stroke:#181818;stroke-width:0.5;" width="4" x="821" y="197.3"/><rect fill="#F1F1F1" height="2" style="stroke:#181818;stroke-width:0.5;" width="4" x="821" y="201.3"/><text fill="#000000" font-family="sans-serif" font-size="14" lengthAdjust="spacing" textLength="136" x="682" y="223.2951">Modelo Intercambio</text></g><!--entity Tablas--><g id="elem_Tablas"><rect fill="#F1F1F1" height="46.2969" rx="2.5" ry="2.5" style="stroke:#181818;stroke-width:0.5;" width="85" x="1651.5" y="84"/><rect fill="#F1F1F1" height="10" style="stroke:#181818;stroke-width:0.5;" width="15" x="1716.5" y="89"/><rect fill="#F1F1F1" height="2" style="stroke:#181818;stroke-width:0.5;" width="4" x="1714.5" y="91"/><rect fill="#F1F1F1" height="2" style="stroke:#181818;stroke-width:0.5;" width="4" x="1714.5" y="95"/><text fill="#000000" font-family="sans-serif" font-size="14" lengthAdjust="spacing" textLength="45" x="1666.5" y="116.9951">Tablas</text></g><!--entity Relaciones--><g id="elem_Relaciones"><rect fill="#F1F1F1" height="46.2969" rx="2.5" ry="2.5" style="stroke:#181818;stroke-width:0.5;" width="116" x="1500" y="84"/><rect fill="#F1F1F1" height="10" style="stroke:#181818;stroke-width:0.5;" width="15" x="1596" y="89"/><rect fill="#F1F1F1" height="2" style="stroke:#181818;stroke-width:0.5;" width="4" x="1594" y="91"/><rect fill="#F1F1F1" height="2" style="stroke:#181818;stroke-width:0.5;" width="4" x="1594" y="95"/><text fill="#000000" font-family="sans-serif" font-size="14" lengthAdjust="spacing" textLength="76" x="1515" y="116.9951">Relaciones</text></g><!--entity Docker--><g id="elem_Docker"><rect fill="#F1F1F1" height="46.2969" rx="2.5" ry="2.5" style="stroke:#181818;stroke-width:0.5;" width="90" x="55" y="335.6"/><rect fill="#F1F1F1" height="10" style="stroke:#181818;stroke-width:0.5;" width="15" x="125" y="340.6"/><rect fill="#F1F1F1" height="2" style="stroke:#181818;stroke-width:0.5;" width="4" x="123" y="342.6"/><rect fill="#F1F1F1" height="2" style="stroke:#181818;stroke-width:0.5;" width="4" x="123" y="346.6"/><text fill="#000000" font-family="sans-serif" font-size="14" lengthAdjust="spacing" textLength="50" x="70" y="368.5951">Docker</text></g><!--entity AWS--><g id="elem_AWS"><rect fill="#F1F1F1" height="46.2969" rx="2.5" ry="2.5" style="stroke:#181818;stroke-width:0.5;" width="71" x="179.5" y="335.6"/><rect fill="#F1F1F1" height="10" style="stroke:#181818;stroke-width:0.5;" width="15" x="230.5" y="340.6"/><rect fill="#F1F1F1" height="2" style="stroke:#181818;stroke-width:0.5;" width="4" x="228.5" y="342.6"/><rect fill="#F1F1F1" height="2" style="stroke:#181818;stroke-width:0.5;" width="4" x="228.5" y="346.6"/><text fill="#000000" font-family="sans-serif" font-size="14" lengthAdjust="spacing" textLength="31" x="194.5" y="368.5951">AWS</text></g><!--entity GitHub Actions--><g id="elem_GitHub Actions"><rect fill="#F1F1F1" height="46.2969" rx="2.5" ry="2.5" style="stroke:#181818;stroke-width:0.5;" width="142" x="55" y="441.89"/><rect fill="#F1F1F1" height="10" style="stroke:#181818;stroke-width:0.5;" width="15" x="177" y="446.89"/><rect fill="#F1F1F1" height="2" style="stroke:#181818;stroke-width:0.5;" width="4" x="175" y="448.89"/><rect fill="#F1F1F1" height="2" style="stroke:#181818;stroke-width:0.5;" width="4" x="175" y="452.89"/><text fill="#000000" font-family="sans-serif" font-size="14" lengthAdjust="spacing" textLength="102" x="70" y="474.8851">GitHub Actions</text></g><!--SRC=[RP1DJiCm48NtESMeAzZ06KBBJwHKgWA5HPJ5n1wGgMD7OniMgAVY25mCr_bHMrZPVi_plT7hKUpmZM1nnzPuCX8kdWDTlRlhYb3uomLyPG3rqdQzDHH_EDWMpK4gDNOeqK6-6OHRvvMshidsMTPFs9juITGI6Jz8Zy3PNyPKjXgbPNA3b-9c5ROk8Ai3zuzLgfR_DOguA0lisd5kVnovjfBYddFOy9vocXCn9PnAH-m9NLV1OmggrqfAJP_8b9vvY9rw9L2edszpNeqZa0GhzDCszHEsUYHLfEDKBFsiqSAyCfBp78GFZEFWoiQUUSXyUKpdlV8FeOLS-4X9a5y0]--></g></svg>