<?xml version="1.0" encoding="us-ascii" standalone="no"?><svg xmlns="http://www.w3.org/2000/svg" xmlns:xlink="http://www.w3.org/1999/xlink" contentStyleType="text/css" height="611px" preserveAspectRatio="none" style="width:876px;height:611px;background:#FFFFFF;" version="1.1" viewBox="0 0 876 611" width="876px" zoomAndPan="magnify"><defs/><g><!--cluster Frontend--><g id="cluster_Frontend"><path d="M309.8637,6 L382.8637,6 A3.75,3.75 0 0 1 385.3637,8.5 L392.3637,28.2969 L595.8637,28.2969 A2.5,2.5 0 0 1 598.3637,30.7969 L598.3637,100.8 A2.5,2.5 0 0 1 595.8637,103.3 L309.8637,103.3 A2.5,2.5 0 0 1 307.3637,100.8 L307.3637,8.5 A2.5,2.5 0 0 1 309.8637,6 " fill="none" style="stroke:#000000;stroke-width:1.5;"/><line style="stroke:#000000;stroke-width:1.5;" x1="307.3637" x2="392.3637" y1="28.2969" y2="28.2969"/><text fill="#000000" font-family="sans-serif" font-size="14" font-weight="bold" lengthAdjust="spacing" textLength="72" x="311.3637" y="20.9951">Frontend</text></g><!--cluster Internet--><g id="cluster_Internet"><path d="M50.1402,144.3418 C65.5955,121.6244 84.2084,114.161 102.6044,141.2439 C121.1338,114.068 139.992,117.0951 156.386,143.3917 C174.8234,112.7323 195.6986,115.8786 217.74,139.3032 C231.3287,114.5729 254.9978,110.3878 270.8999,136.9035 C285.2347,112.9911 308.6734,110.0537 326.7304,132.4124 C346.8918,106.4231 370.3508,113.2652 382.8785,140.47 C399.55,112.4278 416.2652,113.8669 437.4336,135.5348 C457.055,113.51 473.8091,108.1938 490.6866,138.3359 C508.5051,110.7847 528.5782,107.1469 550.6729,133.5847 C574.8518,110.5256 594.9378,109.1506 611.9326,141.524 C621.1809,114.3111 644.1022,114.0969 660.4956,134.1889 C679.2285,105.4043 704.4537,110.4862 718.1439,139.2411 C734.9684,110.939 761.2458,114.3562 774.5066,142.7819 C794.4937,112.6368 811.8682,111.4014 832.3637,142.3 C833.439,141.0602 834.9377,141.2782 835.5937,142.7918 C862.6555,161.0426 861.5235,178.4434 838.0328,198.8921 C869.1332,213.7143 863.5661,233.0854 843.0178,252.6932 C862.282,271.9488 857.6255,288.3916 834.0009,299.3602 C860.7634,314.0748 863.4195,332.4235 839.5687,352.4465 C862.9936,364.7381 862.4159,388.7785 842.293,403.3985 C862.0825,418.7848 858.412,443.4291 836.2401,453.7735 C864.8099,474.0638 865.7736,491.4029 835.1005,510.5032 C858.5614,533.8677 854.0204,549.4571 825.3637,563.19 C827.1694,563.8323 827.2197,564.9321 826.095,566.2701 C811.6678,590.8718 787.8872,591.4593 774.9162,564.8157 C756.6065,590.0842 736.9864,586.7171 719.319,564.0705 C703.7443,592.9977 682.0971,593.809 663.3567,567.264 C644.6241,594.6694 626.7333,594.0844 606.8014,568.5451 C593.2379,593.2917 565.9519,597.8774 551.2713,569.7176 C537.8226,592.356 517.2288,594.4863 500.4793,573.5665 C480.2923,604.3619 450.993,601.5545 438.1062,566.6373 C426.0626,596.1557 407.9289,594.5083 388.4054,574.0805 C366.0656,604.7066 342.3797,597.8497 325.2122,568.6197 C308.6274,588.9357 292.2152,594.0289 275.4116,568.8593 C255.9308,596.2269 232.8623,593.5473 216.1686,565.8602 C197.305,592.1506 177.0734,596.5072 157.6434,566.4486 C142.569,590.1977 127.6011,597.2085 107.2852,571.8203 C79.1881,598.7992 51.5488,591.4455 37.3637,556.19 C42.5767,556.187 45.4667,558.6724 42.9529,564.1172 C13.4989,546.2466 13.0911,524.96 41.5901,505.7366 C20.0067,495.4869 18.3681,476.1754 35.7745,460.8717 C11.8563,442.4217 11.029,414.2447 44.2459,404.3593 C22.8457,391.2765 21.7074,374.2258 41.2821,358.4951 C13.178,343.4412 12.8033,323.2247 38.5679,305.4162 C11.9343,289.9426 10.7595,264.368 39.5273,249.851 C13.7137,237.2553 13.459,215.0839 38.5659,201.4762 C6,176.2179 8.3814,154.5527 44.3637,135.3 C50.8824,135.5276 52.3348,138.5476 50.1402,144.3418 " fill="none" style="stroke:#181818;stroke-width:1.0;"/><text fill="#000000" font-family="sans-serif" font-size="14" font-weight="bold" lengthAdjust="spacing" textLength="63" x="403.3637" y="153.2951">Internet</text></g><!--cluster Database--><g id="cluster_Database"><path d="M61.3637,314.6 C61.3637,304.6 240.8637,304.6 240.8637,304.6 C240.8637,304.6 420.3637,304.6 420.3637,314.6 L420.3637,529.19 C420.3637,539.19 240.8637,539.19 240.8637,539.19 C240.8637,539.19 61.3637,539.19 61.3637,529.19 L61.3637,314.6 " fill="none" style="stroke:#181818;stroke-width:1.0;"/><path d="M61.3637,314.6 C61.3637,324.6 240.8637,324.6 240.8637,324.6 C240.8637,324.6 420.3637,324.6 420.3637,314.6 " fill="none" style="stroke:#181818;stroke-width:1.0;"/><text fill="#000000" font-family="sans-serif" font-size="14" font-weight="bold" lengthAdjust="spacing" textLength="73" x="204.3637" y="339.5951">Database</text></g><!--cluster Backend--><g id="cluster_Backend"><polygon fill="none" points="372.3637,180.3,382.3637,170.3,573.3637,170.3,573.3637,262.6,563.3637,272.6,372.3637,272.6,372.3637,180.3" style="stroke:#181818;stroke-width:1.0;"/><line style="stroke:#181818;stroke-width:1.0;" x1="563.3637" x2="573.3637" y1="180.3" y2="170.3"/><line style="stroke:#181818;stroke-width:1.0;" x1="372.3637" x2="563.3637" y1="180.3" y2="180.3"/><line style="stroke:#181818;stroke-width:1.0;" x1="563.3637" x2="563.3637" y1="180.3" y2="272.6"/><text fill="#000000" font-family="sans-serif" font-size="14" font-weight="bold" lengthAdjust="spacing" textLength="125" x="406.3637" y="196.2951">Backend Server</text></g><!--cluster AWS--><g id="cluster_AWS"><polygon fill="none" points="460.3637,324.6,470.3637,314.6,808.3637,314.6,808.3637,529.19,798.3637,539.19,460.3637,539.19,460.3637,324.6" style="stroke:#181818;stroke-width:1.0;"/><line style="stroke:#181818;stroke-width:1.0;" x1="798.3637" x2="808.3637" y1="324.6" y2="314.6"/><line style="stroke:#181818;stroke-width:1.0;" x1="460.3637" x2="798.3637" y1="324.6" y2="324.6"/><line style="stroke:#181818;stroke-width:1.0;" x1="798.3637" x2="798.3637" y1="324.6" y2="539.19"/><text fill="#000000" font-family="sans-serif" font-size="14" font-weight="bold" lengthAdjust="spacing" textLength="36" x="612.3637" y="340.5951">AWS</text></g><!--entity React App--><g id="elem_React App"><rect fill="#F1F1F1" height="46.2969" rx="2.5" ry="2.5" style="stroke:#181818;stroke-width:0.5;" width="111" x="470.8637" y="41"/><rect fill="#F1F1F1" height="10" style="stroke:#181818;stroke-width:0.5;" width="15" x="561.8637" y="46"/><rect fill="#F1F1F1" height="2" style="stroke:#181818;stroke-width:0.5;" width="4" x="559.8637" y="48"/><rect fill="#F1F1F1" height="2" style="stroke:#181818;stroke-width:0.5;" width="4" x="559.8637" y="52"/><text fill="#000000" font-family="sans-serif" font-size="14" lengthAdjust="spacing" textLength="71" x="485.8637" y="73.9951">React App</text></g><!--entity Vue.js App--><g id="elem_Vue.js App"><rect fill="#F1F1F1" height="46.2969" rx="2.5" ry="2.5" style="stroke:#181818;stroke-width:0.5;" width="113" x="322.8637" y="41"/><rect fill="#F1F1F1" height="10" style="stroke:#181818;stroke-width:0.5;" width="15" x="415.8637" y="46"/><rect fill="#F1F1F1" height="2" style="stroke:#181818;stroke-width:0.5;" width="4" x="413.8637" y="48"/><rect fill="#F1F1F1" height="2" style="stroke:#181818;stroke-width:0.5;" width="4" x="413.8637" y="52"/><text fill="#000000" font-family="sans-serif" font-size="14" lengthAdjust="spacing" textLength="73" x="337.8637" y="73.9951">Vue.js App</text></g><!--entity GitHub--><g id="elem_GitHub"><rect fill="#F1F1F1" height="46.2969" rx="2.5" ry="2.5" style="stroke:#181818;stroke-width:0.5;" width="87" x="259.8637" y="210.3"/><rect fill="#F1F1F1" height="10" style="stroke:#181818;stroke-width:0.5;" width="15" x="326.8637" y="215.3"/><rect fill="#F1F1F1" height="2" style="stroke:#181818;stroke-width:0.5;" width="4" x="324.8637" y="217.3"/><rect fill="#F1F1F1" height="2" style="stroke:#181818;stroke-width:0.5;" width="4" x="324.8637" y="221.3"/><text fill="#000000" font-family="sans-serif" font-size="14" lengthAdjust="spacing" textLength="47" x="274.8637" y="243.2951">GitHub</text></g><!--entity Docker--><g id="elem_Docker"><rect fill="#F1F1F1" height="46.2969" rx="2.5" ry="2.5" style="stroke:#181818;stroke-width:0.5;" width="90" x="105.3637" y="210.3"/><rect fill="#F1F1F1" height="10" style="stroke:#181818;stroke-width:0.5;" width="15" x="175.3637" y="215.3"/><rect fill="#F1F1F1" height="2" style="stroke:#181818;stroke-width:0.5;" width="4" x="173.3637" y="217.3"/><rect fill="#F1F1F1" height="2" style="stroke:#181818;stroke-width:0.5;" width="4" x="173.3637" y="221.3"/><text fill="#000000" font-family="sans-serif" font-size="14" lengthAdjust="spacing" textLength="50" x="120.3637" y="243.2951">Docker</text></g><!--entity User Data--><g id="elem_User Data"><rect fill="#F1F1F1" height="46.2969" rx="2.5" ry="2.5" style="stroke:#181818;stroke-width:0.5;" width="108" x="111.3637" y="362.6"/><rect fill="#F1F1F1" height="10" style="stroke:#181818;stroke-width:0.5;" width="15" x="199.3637" y="367.6"/><rect fill="#F1F1F1" height="2" style="stroke:#181818;stroke-width:0.5;" width="4" x="197.3637" y="369.6"/><rect fill="#F1F1F1" height="2" style="stroke:#181818;stroke-width:0.5;" width="4" x="197.3637" y="373.6"/><text fill="#000000" font-family="sans-serif" font-size="14" lengthAdjust="spacing" textLength="68" x="126.3637" y="395.5951">User Data</text></g><!--entity Book Data--><g id="elem_Book Data"><rect fill="#F1F1F1" height="46.2969" rx="2.5" ry="2.5" style="stroke:#181818;stroke-width:0.5;" width="112" x="254.3637" y="362.6"/><rect fill="#F1F1F1" height="10" style="stroke:#181818;stroke-width:0.5;" width="15" x="346.3637" y="367.6"/><rect fill="#F1F1F1" height="2" style="stroke:#181818;stroke-width:0.5;" width="4" x="344.3637" y="369.6"/><rect fill="#F1F1F1" height="2" style="stroke:#181818;stroke-width:0.5;" width="4" x="344.3637" y="373.6"/><text fill="#000000" font-family="sans-serif" font-size="14" lengthAdjust="spacing" textLength="72" x="269.3637" y="395.5951">Book Data</text></g><!--entity Exchange Data--><g id="elem_Exchange Data"><rect fill="#F1F1F1" height="46.2969" rx="2.5" ry="2.5" style="stroke:#181818;stroke-width:0.5;" width="144" x="93.3637" y="468.89"/><rect fill="#F1F1F1" height="10" style="stroke:#181818;stroke-width:0.5;" width="15" x="217.3637" y="473.89"/><rect fill="#F1F1F1" height="2" style="stroke:#181818;stroke-width:0.5;" width="4" x="215.3637" y="475.89"/><rect fill="#F1F1F1" height="2" style="stroke:#181818;stroke-width:0.5;" width="4" x="215.3637" y="479.89"/><text fill="#000000" font-family="sans-serif" font-size="14" lengthAdjust="spacing" textLength="104" x="108.3637" y="501.8851">Exchange Data</text></g><!--entity Review Data--><g id="elem_Review Data"><rect fill="#F1F1F1" height="46.2969" rx="2.5" ry="2.5" style="stroke:#181818;stroke-width:0.5;" width="125" x="271.8637" y="468.89"/><rect fill="#F1F1F1" height="10" style="stroke:#181818;stroke-width:0.5;" width="15" x="376.8637" y="473.89"/><rect fill="#F1F1F1" height="2" style="stroke:#181818;stroke-width:0.5;" width="4" x="374.8637" y="475.89"/><rect fill="#F1F1F1" height="2" style="stroke:#181818;stroke-width:0.5;" width="4" x="374.8637" y="479.89"/><text fill="#000000" font-family="sans-serif" font-size="14" lengthAdjust="spacing" textLength="85" x="286.8637" y="501.8851">Review Data</text></g><!--entity Laravel API--><g id="elem_Laravel API"><rect fill="#F1F1F1" height="46.2969" rx="2.5" ry="2.5" style="stroke:#181818;stroke-width:0.5;" width="112" x="397.3637" y="210.3"/><rect fill="#F1F1F1" height="10" style="stroke:#181818;stroke-width:0.5;" width="15" x="489.3637" y="215.3"/><rect fill="#F1F1F1" height="2" style="stroke:#181818;stroke-width:0.5;" width="4" x="487.3637" y="217.3"/><rect fill="#F1F1F1" height="2" style="stroke:#181818;stroke-width:0.5;" width="4" x="487.3637" y="221.3"/><text fill="#000000" font-family="sans-serif" font-size="14" lengthAdjust="spacing" textLength="72" x="412.3637" y="243.2951">Laravel API</text></g><!--entity S3 Storage--><g id="elem_S3 Storage"><rect fill="#F1F1F1" height="46.2969" rx="2.5" ry="2.5" style="stroke:#181818;stroke-width:0.5;" width="116" x="503.3637" y="362.6"/><rect fill="#F1F1F1" height="10" style="stroke:#181818;stroke-width:0.5;" width="15" x="599.3637" y="367.6"/><rect fill="#F1F1F1" height="2" style="stroke:#181818;stroke-width:0.5;" width="4" x="597.3637" y="369.6"/><rect fill="#F1F1F1" height="2" style="stroke:#181818;stroke-width:0.5;" width="4" x="597.3637" y="373.6"/><text fill="#000000" font-family="sans-serif" font-size="14" lengthAdjust="spacing" textLength="76" x="518.3637" y="395.5951">S3 Storage</text></g><!--entity EC2 Instance--><g id="elem_EC2 Instance"><rect fill="#F1F1F1" height="46.2969" rx="2.5" ry="2.5" style="stroke:#181818;stroke-width:0.5;" width="131" x="653.8637" y="362.6"/><rect fill="#F1F1F1" height="10" style="stroke:#181818;stroke-width:0.5;" width="15" x="764.8637" y="367.6"/><rect fill="#F1F1F1" height="2" style="stroke:#181818;stroke-width:0.5;" width="4" x="762.8637" y="369.6"/><rect fill="#F1F1F1" height="2" style="stroke:#181818;stroke-width:0.5;" width="4" x="762.8637" y="373.6"/><text fill="#000000" font-family="sans-serif" font-size="14" lengthAdjust="spacing" textLength="91" x="668.8637" y="395.5951">EC2 Instance</text></g><!--entity RDS--><g id="elem_RDS"><rect fill="#F1F1F1" height="46.2969" rx="2.5" ry="2.5" style="stroke:#181818;stroke-width:0.5;" width="70" x="526.3637" y="468.89"/><rect fill="#F1F1F1" height="10" style="stroke:#181818;stroke-width:0.5;" width="15" x="576.3637" y="473.89"/><rect fill="#F1F1F1" height="2" style="stroke:#181818;stroke-width:0.5;" width="4" x="574.3637" y="475.89"/><rect fill="#F1F1F1" height="2" style="stroke:#181818;stroke-width:0.5;" width="4" x="574.3637" y="479.89"/><text fill="#000000" font-family="sans-serif" font-size="14" lengthAdjust="spacing" textLength="30" x="541.3637" y="501.8851">RDS</text></g><!--link React App to Laravel API--><g id="link_React App_Laravel API"><path d="M516.5137,87.71 C503.3137,117.98 479.8637,171.71 465.5537,204.5 " fill="none" id="React App-to-Laravel API" style="stroke:#181818;stroke-width:1.0;"/><polygon fill="#181818" points="463.1737,208.98,470.4381,202.3295,465.1725,204.3969,463.1052,199.1314,463.1737,208.98" style="stroke:#181818;stroke-width:1.0;"/></g><!--link Vue.js App to Laravel API--><g id="link_Vue.js App_Laravel API"><path d="M389.3437,87.71 C402.7337,117.98 426.4937,171.71 441.0037,204.5 " fill="none" id="Vue.js App-to-Laravel API" style="stroke:#181818;stroke-width:1.0;"/><polygon fill="#181818" points="443.4237,208.98,443.4551,199.1312,441.4076,204.4045,436.1343,202.3569,443.4237,208.98" style="stroke:#181818;stroke-width:1.0;"/></g><!--link Laravel API to Database--><g id="link_Laravel API_Database"><path d="M431.2137,256.92 C420.6937,266.06 407.3637,275.64 393.3637,280.6 C376.8137,286.46 90.1337,276.54 77.3637,288.6 C73.5262,292.2213 70.512,296.407 68.1765,300.9636 C67.5927,302.1027 67.0512,303.265 66.5499,304.4475 " fill="none" id="Laravel API-to-Database" style="stroke:#181818;stroke-width:1.0;"/><polygon fill="#181818" points="66.5499,304.4475,73.7454,297.7225,68.5015,299.8441,66.3799,294.6001,66.5499,304.4475" style="stroke:#181818;stroke-width:1.0;"/></g><!--link Laravel API to AWS--><g id="link_Laravel API_AWS"><path d="M455.6137,256.95 C456.6412,267.2675 457.9349,280.2463 459.3017,293.9516 C459.6433,297.3779 459.9896,300.8496 460.3374,304.3365 C460.5112,306.08 460.6855,307.8273 460.8598,309.5745 C460.9469,310.4482 461.0341,311.3218 461.1212,312.195 C461.1647,312.6316 461.2083,313.068 461.2518,313.5043 C461.2736,313.7225 461.2953,313.9406 461.3171,314.1586 " fill="none" id="Laravel API-to-AWS" style="stroke:#181818;stroke-width:1.0;"/><polygon fill="#181818" points="461.3171,314.1586,464.404,304.806,460.8208,309.1833,456.4435,305.6001,461.3171,314.1586" style="stroke:#181818;stroke-width:1.0;"/></g><!--SRC=[RL3B3e8m4Bpp5HlkUj2x2OeF4W-6HZqO3clPA6fQqXOqCVwxYmXfZ3TcbdbqIfHNF1642wEL8vM7y0m03YcXT12LPTQWNKN3YstXAmZaJLSvX0aBZ2BNIFYl71qUqR9N_FrglLY_jMIWORCMJxM- -dZ-a6TKNCFZKgeBklVCgubGEcVxANVcfY38r6H2G0iTzSrRey6QRX1jaXzjj1TzAp46uRJXvtSrPYD8b7MeP4UbiUWT3il2hQhZPv5OSw3vhE5j1OF1v2VTt-xVsKVjlLllxv7xPy4R]--></g></svg>