<?xml version="1.0" encoding="us-ascii" standalone="no"?><svg xmlns="http://www.w3.org/2000/svg" xmlns:xlink="http://www.w3.org/1999/xlink" contentStyleType="text/css" height="499px" preserveAspectRatio="none" style="width:978px;height:499px;background:#FFFFFF;" version="1.1" viewBox="0 0 978 499" width="978px" zoomAndPan="magnify"><defs/><g><line style="stroke:#181818;stroke-width:0.5;stroke-dasharray:5.0,5.0;" x1="37" x2="37" y1="36.2969" y2="464.1563"/><line style="stroke:#181818;stroke-width:0.5;stroke-dasharray:5.0,5.0;" x1="190.5" x2="190.5" y1="36.2969" y2="464.1563"/><line style="stroke:#181818;stroke-width:0.5;stroke-dasharray:5.0,5.0;" x1="412" x2="412" y1="36.2969" y2="464.1563"/><line style="stroke:#181818;stroke-width:0.5;stroke-dasharray:5.0,5.0;" x1="650" x2="650" y1="36.2969" y2="464.1563"/><line style="stroke:#181818;stroke-width:0.5;stroke-dasharray:5.0,5.0;" x1="890.5" x2="890.5" y1="36.2969" y2="464.1563"/><rect fill="#E2E2F0" height="30.2969" rx="2.5" ry="2.5" style="stroke:#181818;stroke-width:0.5;" width="64" x="5" y="5"/><text fill="#000000" font-family="sans-serif" font-size="14" lengthAdjust="spacing" textLength="50" x="12" y="24.9951">Docker</text><rect fill="#E2E2F0" height="30.2969" rx="2.5" ry="2.5" style="stroke:#181818;stroke-width:0.5;" width="64" x="5" y="463.1563"/><text fill="#000000" font-family="sans-serif" font-size="14" lengthAdjust="spacing" textLength="50" x="12" y="483.1514">Docker</text><rect fill="#E2E2F0" height="30.2969" rx="2.5" ry="2.5" style="stroke:#181818;stroke-width:0.5;" width="61" x="160.5" y="5"/><text fill="#000000" font-family="sans-serif" font-size="14" lengthAdjust="spacing" textLength="47" x="167.5" y="24.9951">Laravel</text><rect fill="#E2E2F0" height="30.2969" rx="2.5" ry="2.5" style="stroke:#181818;stroke-width:0.5;" width="61" x="160.5" y="463.1563"/><text fill="#000000" font-family="sans-serif" font-size="14" lengthAdjust="spacing" textLength="47" x="167.5" y="483.1514">Laravel</text><rect fill="#E2E2F0" height="30.2969" rx="2.5" ry="2.5" style="stroke:#181818;stroke-width:0.5;" width="116" x="354" y="5"/><text fill="#000000" font-family="sans-serif" font-size="14" lengthAdjust="spacing" textLength="102" x="361" y="24.9951">Base de Datos</text><rect fill="#E2E2F0" height="30.2969" rx="2.5" ry="2.5" style="stroke:#181818;stroke-width:0.5;" width="116" x="354" y="463.1563"/><text fill="#000000" font-family="sans-serif" font-size="14" lengthAdjust="spacing" textLength="102" x="361" y="483.1514">Base de Datos</text><rect fill="#E2E2F0" height="30.2969" rx="2.5" ry="2.5" style="stroke:#181818;stroke-width:0.5;" width="112" x="594" y="5"/><text fill="#000000" font-family="sans-serif" font-size="14" lengthAdjust="spacing" textLength="98" x="601" y="24.9951">Controladores</text><rect fill="#E2E2F0" height="30.2969" rx="2.5" ry="2.5" style="stroke:#181818;stroke-width:0.5;" width="112" x="594" y="463.1563"/><text fill="#000000" font-family="sans-serif" font-size="14" lengthAdjust="spacing" textLength="98" x="601" y="483.1514">Controladores</text><rect fill="#E2E2F0" height="30.2969" rx="2.5" ry="2.5" style="stroke:#181818;stroke-width:0.5;" width="163" x="809.5" y="5"/><text fill="#000000" font-family="sans-serif" font-size="14" lengthAdjust="spacing" textLength="149" x="816.5" y="24.9951">Frontend (Vue/React)</text><rect fill="#E2E2F0" height="30.2969" rx="2.5" ry="2.5" style="stroke:#181818;stroke-width:0.5;" width="163" x="809.5" y="463.1563"/><text fill="#000000" font-family="sans-serif" font-size="14" lengthAdjust="spacing" textLength="149" x="816.5" y="483.1514">Frontend (Vue/React)</text><polygon fill="#181818" points="179,63.4297,189,67.4297,179,71.4297,183,67.4297" style="stroke:#181818;stroke-width:1.0;"/><line style="stroke:#181818;stroke-width:1.0;" x1="37" x2="185" y1="67.4297" y2="67.4297"/><text fill="#000000" font-family="sans-serif" font-size="13" lengthAdjust="spacing" textLength="111" x="44" y="62.3638">Configura Laravel</text><polygon fill="#181818" points="400,92.5625,410,96.5625,400,100.5625,404,96.5625" style="stroke:#181818;stroke-width:1.0;"/><line style="stroke:#181818;stroke-width:1.0;" x1="191" x2="406" y1="96.5625" y2="96.5625"/><text fill="#000000" font-family="sans-serif" font-size="13" lengthAdjust="spacing" textLength="197" x="198" y="91.4966">Modelo de datos y Migraciones</text><polygon fill="#181818" points="638,121.6953,648,125.6953,638,129.6953,642,125.6953" style="stroke:#181818;stroke-width:1.0;"/><line style="stroke:#181818;stroke-width:1.0;" x1="412" x2="644" y1="125.6953" y2="125.6953"/><text fill="#000000" font-family="sans-serif" font-size="13" lengthAdjust="spacing" textLength="144" x="419" y="120.6294">Pruebas de Relaciones</text><polygon fill="#181818" points="879,150.8281,889,154.8281,879,158.8281,883,154.8281" style="stroke:#181818;stroke-width:1.0;"/><line style="stroke:#181818;stroke-width:1.0;" x1="650" x2="885" y1="154.8281" y2="154.8281"/><text fill="#000000" font-family="sans-serif" font-size="13" lengthAdjust="spacing" textLength="179" x="657" y="149.7622">Pruebas para Controladores</text><polygon fill="#181818" points="661,179.9609,651,183.9609,661,187.9609,657,183.9609" style="stroke:#181818;stroke-width:1.0;"/><line style="stroke:#181818;stroke-width:1.0;" x1="655" x2="890" y1="183.9609" y2="183.9609"/><text fill="#000000" font-family="sans-serif" font-size="13" lengthAdjust="spacing" textLength="217" x="667" y="178.895">Implementaci&#243;n de Controladores</text><polygon fill="#181818" points="423,209.0938,413,213.0938,423,217.0938,419,213.0938" style="stroke:#181818;stroke-width:1.0;"/><line style="stroke:#181818;stroke-width:1.0;" x1="417" x2="649" y1="213.0938" y2="213.0938"/><text fill="#000000" font-family="sans-serif" font-size="13" lengthAdjust="spacing" textLength="122" x="429" y="208.0278">Rutas y Middleware</text><polygon fill="#181818" points="638,238.2266,648,242.2266,638,246.2266,642,242.2266" style="stroke:#181818;stroke-width:1.0;"/><line style="stroke:#181818;stroke-width:1.0;" x1="412" x2="644" y1="242.2266" y2="242.2266"/><text fill="#000000" font-family="sans-serif" font-size="13" lengthAdjust="spacing" textLength="163" x="419" y="237.1606">Pruebas de Autenticaci&#243;n</text><polygon fill="#181818" points="423,267.3594,413,271.3594,423,275.3594,419,271.3594" style="stroke:#181818;stroke-width:1.0;"/><line style="stroke:#181818;stroke-width:1.0;" x1="417" x2="649" y1="271.3594" y2="271.3594"/><text fill="#000000" font-family="sans-serif" font-size="13" lengthAdjust="spacing" textLength="214" x="429" y="266.2935">Implementaci&#243;n de Autenticaci&#243;n</text><polygon fill="#181818" points="638,296.4922,648,300.4922,638,304.4922,642,300.4922" style="stroke:#181818;stroke-width:1.0;"/><line style="stroke:#181818;stroke-width:1.0;" x1="412" x2="644" y1="300.4922" y2="300.4922"/><text fill="#000000" font-family="sans-serif" font-size="13" lengthAdjust="spacing" textLength="80" x="419" y="295.4263">Validaciones</text><polygon fill="#181818" points="879,325.625,889,329.625,879,333.625,883,329.625" style="stroke:#181818;stroke-width:1.0;"/><line style="stroke:#181818;stroke-width:1.0;" x1="650" x2="885" y1="329.625" y2="329.625"/><text fill="#000000" font-family="sans-serif" font-size="13" lengthAdjust="spacing" textLength="101" x="657" y="324.5591">OWASP Top Ten</text><polygon fill="#181818" points="202,354.7578,192,358.7578,202,362.7578,198,358.7578" style="stroke:#181818;stroke-width:1.0;"/><line style="stroke:#181818;stroke-width:1.0;" x1="196" x2="890" y1="358.7578" y2="358.7578"/><text fill="#000000" font-family="sans-serif" font-size="13" lengthAdjust="spacing" textLength="166" x="208" y="353.6919">Configuraci&#243;n (Vue/React)</text><polygon fill="#181818" points="879,383.8906,889,387.8906,879,391.8906,883,387.8906" style="stroke:#181818;stroke-width:1.0;"/><line style="stroke:#181818;stroke-width:1.0;" x1="191" x2="885" y1="387.8906" y2="387.8906"/><text fill="#000000" font-family="sans-serif" font-size="13" lengthAdjust="spacing" textLength="166" x="198" y="382.8247">Pruebas de Componentes</text><polygon fill="#181818" points="202,413.0234,192,417.0234,202,421.0234,198,417.0234" style="stroke:#181818;stroke-width:1.0;"/><line style="stroke:#181818;stroke-width:1.0;" x1="196" x2="890" y1="417.0234" y2="417.0234"/><text fill="#000000" font-family="sans-serif" font-size="13" lengthAdjust="spacing" textLength="252" x="208" y="411.9575">Implementaci&#243;n de Componentes y API</text><polygon fill="#181818" points="48,442.1563,38,446.1563,48,450.1563,44,446.1563" style="stroke:#181818;stroke-width:1.0;"/><line style="stroke:#181818;stroke-width:1.0;" x1="42" x2="190" y1="446.1563" y2="446.1563"/><text fill="#000000" font-family="sans-serif" font-size="13" lengthAdjust="spacing" textLength="130" x="54" y="441.0903">Docker y Producci&#243;n</text><!--SRC=[RLBDQeGm4BxdAOOzjGVftOEW4M71fMANxNbgfejiJ2J6bZvN7w4lrj6uhIvxpVS_f4VdswRjqNZOvRQvaDi13f2BVesKwF23z0oLMoZ3WK0HvEZjC1Eo6x6qnZkhKLb7WI6tXC8nWuo2XzD8JpLXunzdNY547YLb36pntfv7Xx0q4MMKP7aC1wj8sobVJVdm1OVsxB1fhQ51PAoMCLHkf3UsOrPD-WhAA2d-CIw4i6agYbcyxtfD7HdFkfzlCvbiQJ8qgKUF8LyfJP_ew4vyEl9E7Xwyhj8x4JV4nUc4kbNR_i-lwKi5Hzl3aSnKUNsjOBUwwdIsOjD8sgvdExx_iAZl3luZySAqsay-N3ny67wgd5LZ4xh-0W00]--></g></svg>